# This file uses centimeters as units for non-parametric coordinates.

mtllib 3of4_Cone.mtl
g default
v 1.195175 3.750000 -1.444712
v 1.004677 3.750000 -1.583115
v 0.798340 3.750000 -1.696550
v 0.579407 3.750000 -1.783232
v 0.351341 3.750000 -1.841787
v 0.117737 3.750000 -1.871300
v -0.117737 3.750000 -1.871300
v -0.351341 3.750000 -1.841787
v -0.579407 3.750000 -1.783230
v -0.798340 3.750000 -1.696550
v -1.004677 3.750000 -1.583113
v -1.195175 3.750000 -1.444712
v -1.366821 3.750000 -1.283525
v -1.516907 3.750000 -1.102095
v -1.643074 3.750000 -0.903288
v -1.743332 3.750000 -0.690233
v -1.816093 3.750000 -0.466291
v -1.860214 3.750000 -0.234999
v -1.875000 3.750000 0.000002
v -1.860214 3.750000 0.235003
v -1.816093 3.750000 0.466295
v -1.743332 3.750000 0.690237
v -1.643074 3.750000 0.903292
v -1.516907 3.750000 1.102100
v -1.366821 3.750000 1.283529
v -1.195168 3.750000 1.444715
v -1.004677 3.750000 1.583117
v -0.798340 3.750000 1.696554
v -0.579407 3.750000 1.783234
v -0.351341 3.750000 1.841791
v -0.117737 3.750000 1.871302
v 0.117737 3.750000 1.871302
v 0.351341 3.750000 1.841791
v 0.579407 3.750000 1.783234
v 0.798340 3.750000 1.696552
v 1.004677 3.750000 1.583117
v 1.195168 3.750000 1.444715
v 1.366814 3.750000 1.283527
v 1.516907 3.750000 1.102098
v 1.643074 3.750000 0.903290
v 1.743332 3.750000 0.690235
v 1.816093 3.750000 0.466295
v 1.860214 3.750000 0.235003
v 1.875000 3.750000 0.000002
v 1.860214 3.750000 -0.234999
v 1.816093 3.750000 -0.466291
v 1.743332 3.750000 -0.690233
v 1.643074 3.750000 -0.903288
v 1.516907 3.750000 -1.102097
v 1.366821 3.750000 -1.283525
v 7.500000 -3.750000 0.000002
v 7.440865 -3.750000 -0.939999
v 7.440857 -3.750000 0.940001
v 7.264374 -3.750000 1.865175
v 6.973328 -3.750000 2.760937
v 6.572304 -3.750000 3.613153
v 6.067627 -3.750000 4.408392
v 5.467262 -3.750000 5.134106
v 4.780678 -3.750000 5.778852
v 4.018700 -3.750000 6.332462
v 3.193344 -3.750000 6.786205
v 2.317627 -3.750000 7.132927
v 1.405357 -3.750000 7.367159
v 0.470932 -3.750000 7.485205
v -0.470932 -3.750000 7.485205
v -1.405357 -3.750000 7.367159
v -2.317627 -3.750000 7.132929
v -3.193344 -3.750000 6.786207
v -4.018700 -3.750000 6.332464
v -4.780678 -3.750000 5.778854
v -5.467270 -3.750000 5.134108
v -6.067627 -3.750000 4.408394
v -6.572304 -3.750000 3.613157
v -6.973328 -3.750000 2.760939
v -7.264374 -3.750000 1.865177
v -7.440865 -3.750000 0.940002
v -7.500008 -3.750000 0.000002
v -7.440865 -3.750000 -0.939997
v -7.264381 -3.750000 -1.865173
v -6.973328 -3.750000 -2.760935
v -6.572304 -3.750000 -3.613153
v -6.067635 -3.750000 -4.408388
v -5.467270 -3.750000 -5.134104
v -4.780685 -3.750000 -5.778852
v -4.018707 -3.750000 -6.332460
v -3.193344 -3.750000 -6.786207
v -2.317627 -3.750000 -7.132925
v -1.405365 -3.750000 -7.367159
v -0.470932 -3.750000 -7.485205
v 0.470932 -3.750000 -7.485205
v 1.405357 -3.750000 -7.367159
v 2.317627 -3.750000 -7.132929
v 3.193344 -3.750000 -6.786207
v 4.018707 -3.750000 -6.332464
v 4.780685 -3.750000 -5.778852
v 5.467270 -3.750000 -5.134108
v 6.067635 -3.750000 -4.408392
v 6.572304 -3.750000 -3.613153
v 6.973328 -3.750000 -2.760935
v 7.264381 -3.750000 -1.865175
vt 0.748029 0.218667
vt 0.742146 0.187827
vt 0.732444 0.157969
vt 0.719077 0.129561
vt 0.702254 0.103054
vt 0.682242 0.078863
vt 0.659356 0.057371
vt 0.633957 0.038918
vt 0.606445 0.023793
vt 0.577254 0.012236
vt 0.546845 0.004428
vt 0.515698 0.000493
vt 0.484302 0.000493
vt 0.453155 0.004428
vt 0.422746 0.012236
vt 0.393555 0.023793
vt 0.366043 0.038918
vt 0.340644 0.057372
vt 0.317758 0.078863
vt 0.297746 0.103054
vt 0.280923 0.129562
vt 0.267556 0.157969
vt 0.257854 0.187828
vt 0.251971 0.218667
vt 0.250000 0.250000
vt 0.251971 0.281333
vt 0.257854 0.312173
vt 0.267556 0.342031
vt 0.280923 0.370439
vt 0.297746 0.396946
vt 0.317758 0.421137
vt 0.340644 0.442628
vt 0.366043 0.461082
vt 0.393555 0.476207
vt 0.422746 0.487764
vt 0.453155 0.495572
vt 0.484302 0.499507
vt 0.515698 0.499507
vt 0.546845 0.495572
vt 0.577254 0.487764
vt 0.606445 0.476207
vt 0.633957 0.461082
vt 0.659356 0.442628
vt 0.682242 0.421137
vt 0.702254 0.396946
vt 0.719077 0.370438
vt 0.732444 0.342031
vt 0.742146 0.312172
vt 0.748029 0.281333
vt 0.750000 0.250000
vt 0.250000 0.500000
vt 0.260000 0.500000
vt 0.270000 0.500000
vt 0.280000 0.500000
vt 0.290000 0.500000
vt 0.300000 0.500000
vt 0.310000 0.500000
vt 0.320000 0.500000
vt 0.330000 0.500000
vt 0.340000 0.500000
vt 0.350000 0.500000
vt 0.360000 0.500000
vt 0.370000 0.500000
vt 0.380000 0.500000
vt 0.390000 0.500000
vt 0.400000 0.500000
vt 0.410000 0.500000
vt 0.420000 0.500000
vt 0.430000 0.500000
vt 0.440000 0.500000
vt 0.450000 0.500000
vt 0.460000 0.500000
vt 0.470000 0.500000
vt 0.480000 0.500000
vt 0.490000 0.500000
vt 0.500000 0.500000
vt 0.510000 0.500000
vt 0.520000 0.500000
vt 0.530000 0.500000
vt 0.540000 0.500000
vt 0.550000 0.500000
vt 0.560000 0.500000
vt 0.570000 0.500000
vt 0.580000 0.500000
vt 0.590000 0.500000
vt 0.600000 0.500000
vt 0.610000 0.500000
vt 0.620000 0.500000
vt 0.630000 0.500000
vt 0.640000 0.500000
vt 0.650000 0.500000
vt 0.660000 0.500000
vt 0.670000 0.500000
vt 0.680000 0.500000
vt 0.690000 0.500000
vt 0.700000 0.500000
vt 0.710000 0.500000
vt 0.720000 0.500000
vt 0.730000 0.500000
vt 0.740000 0.500000
vt 0.750000 0.500000
vt 0.517085 0.858956
vt 0.518961 0.861224
vt 0.520538 0.863709
vt 0.521792 0.866372
vt 0.522701 0.869171
vt 0.523253 0.872063
vt 0.523438 0.875000
vt 0.523253 0.877937
vt 0.522701 0.880829
vt 0.521792 0.883628
vt 0.520538 0.886291
vt 0.518961 0.888776
vt 0.517085 0.891044
vt 0.514940 0.893059
vt 0.512558 0.894789
vt 0.509979 0.896207
vt 0.507243 0.897290
vt 0.504392 0.898022
vt 0.501472 0.898391
vt 0.498528 0.898391
vt 0.495608 0.898022
vt 0.492757 0.897290
vt 0.490021 0.896207
vt 0.487442 0.894789
vt 0.485060 0.893059
vt 0.482915 0.891044
vt 0.481039 0.888776
vt 0.479462 0.886291
vt 0.478208 0.883628
vt 0.477299 0.880829
vt 0.476747 0.877937
vt 0.476563 0.875000
vt 0.476747 0.872062
vt 0.477299 0.869171
vt 0.478208 0.866372
vt 0.479462 0.863709
vt 0.481039 0.861224
vt 0.482915 0.858956
vt 0.485060 0.856941
vt 0.487442 0.855211
vt 0.490021 0.853793
vt 0.492757 0.852710
vt 0.495608 0.851978
vt 0.498528 0.851609
vt 0.501472 0.851609
vt 0.504392 0.851978
vt 0.507243 0.852710
vt 0.509979 0.853793
vt 0.512558 0.855211
vt 0.514940 0.856941
vt 0.560000 0.875000
vt 0.562500 0.875000
vt 0.557500 0.875000
vt 0.560000 0.875000
vt 0.555000 0.875000
vt 0.557500 0.875000
vt 0.552500 0.875000
vt 0.555000 0.875000
vt 0.550000 0.875000
vt 0.552500 0.875000
vt 0.547500 0.875000
vt 0.550000 0.875000
vt 0.545000 0.875000
vt 0.547500 0.875000
vt 0.542500 0.875000
vt 0.545000 0.875000
vt 0.540000 0.875000
vt 0.542500 0.875000
vt 0.537500 0.875000
vt 0.540000 0.875000
vt 0.535000 0.875000
vt 0.537500 0.875000
vt 0.532500 0.875000
vt 0.535000 0.875000
vt 0.530000 0.875000
vt 0.532500 0.875000
vt 0.527500 0.875000
vt 0.530000 0.875000
vt 0.525000 0.875000
vt 0.527500 0.875000
vt 0.522500 0.875000
vt 0.525000 0.875000
vt 0.520000 0.875000
vt 0.522500 0.875000
vt 0.517500 0.875000
vt 0.520000 0.875000
vt 0.515000 0.875000
vt 0.517500 0.875000
vt 0.512500 0.875000
vt 0.515000 0.875000
vt 0.510000 0.875000
vt 0.512500 0.875000
vt 0.507500 0.875000
vt 0.510000 0.875000
vt 0.505000 0.875000
vt 0.507500 0.875000
vt 0.502500 0.875000
vt 0.505000 0.875000
vt 0.500000 0.875000
vt 0.502500 0.875000
vt 0.497500 0.875000
vt 0.500000 0.875000
vt 0.495000 0.875000
vt 0.497500 0.875000
vt 0.492500 0.875000
vt 0.495000 0.875000
vt 0.490000 0.875000
vt 0.492500 0.875000
vt 0.487500 0.875000
vt 0.490000 0.875000
vt 0.485000 0.875000
vt 0.487500 0.875000
vt 0.482500 0.875000
vt 0.485000 0.875000
vt 0.480000 0.875000
vt 0.482500 0.875000
vt 0.477500 0.875000
vt 0.480000 0.875000
vt 0.475000 0.875000
vt 0.477500 0.875000
vt 0.472500 0.875000
vt 0.475000 0.875000
vt 0.470000 0.875000
vt 0.472500 0.875000
vt 0.467500 0.875000
vt 0.470000 0.875000
vt 0.465000 0.875000
vt 0.467500 0.875000
vt 0.462500 0.875000
vt 0.465000 0.875000
vt 0.460000 0.875000
vt 0.462500 0.875000
vt 0.457500 0.875000
vt 0.460000 0.875000
vt 0.455000 0.875000
vt 0.457500 0.875000
vt 0.452500 0.875000
vt 0.455000 0.875000
vt 0.450000 0.875000
vt 0.452500 0.875000
vt 0.447500 0.875000
vt 0.450000 0.875000
vt 0.445000 0.875000
vt 0.447500 0.875000
vt 0.442500 0.875000
vt 0.445000 0.875000
vt 0.440000 0.875000
vt 0.442500 0.875000
vt 0.437500 0.875000
vt 0.440000 0.875000
vn 0.000000 1.000000 0.000000
vn 0.000000 1.000000 0.000000
vn 0.000000 1.000000 0.000000
vn 0.000000 1.000000 0.000000
vn 0.000000 1.000000 0.000000
vn 0.000000 1.000000 0.000000
vn 0.000000 1.000000 0.000000
vn 0.000000 1.000000 0.000000
vn 0.000000 1.000000 0.000000
vn 0.000000 1.000000 0.000000
vn 0.000000 1.000000 0.000000
vn 0.000000 1.000000 0.000000
vn 0.000000 1.000000 0.000000
vn 0.000000 1.000000 0.000000
vn 0.000000 1.000000 0.000000
vn 0.000000 1.000000 0.000000
vn 0.000000 1.000000 0.000000
vn 0.000000 1.000000 0.000000
vn 0.000000 1.000000 0.000000
vn 0.000000 1.000000 0.000000
vn 0.000000 1.000000 0.000000
vn 0.000000 1.000000 0.000000
vn 0.000000 1.000000 0.000000
vn 0.000000 1.000000 0.000000
vn 0.000000 1.000000 0.000000
vn 0.000000 1.000000 0.000000
vn 0.000000 1.000000 0.000000
vn 0.000000 1.000000 0.000000
vn 0.000000 1.000000 0.000000
vn 0.000000 1.000000 0.000000
vn 0.000000 1.000000 0.000000
vn 0.000000 1.000000 0.000000
vn 0.000000 1.000000 0.000000
vn 0.000000 1.000000 0.000000
vn 0.000000 1.000000 0.000000
vn 0.000000 1.000000 0.000000
vn 0.000000 1.000000 0.000000
vn 0.000000 1.000000 0.000000
vn 0.000000 1.000000 0.000000
vn 0.000000 1.000000 0.000000
vn 0.000000 1.000000 0.000000
vn 0.000000 1.000000 0.000000
vn 0.000000 1.000000 0.000000
vn 0.000000 1.000000 0.000000
vn 0.000000 1.000000 0.000000
vn 0.000000 1.000000 0.000000
vn 0.000000 1.000000 0.000000
vn 0.000000 1.000000 0.000000
vn 0.000000 1.000000 0.000000
vn 0.000000 1.000000 0.000000
vn 0.793692 0.600000 -0.100264
vn 0.800000 0.600000 0.000003
vn 0.800000 0.600000 0.000003
vn 0.793692 0.600000 -0.100264
vn 0.793692 0.600000 0.100267
vn 0.793692 0.600000 0.100267
vn 0.774867 0.600000 0.198949
vn 0.774867 0.600000 0.198949
vn 0.743821 0.600000 0.294499
vn 0.743821 0.600000 0.294499
vn 0.701044 0.600000 0.385404
vn 0.701044 0.600000 0.385404
vn 0.647212 0.600000 0.470230
vn 0.647212 0.600000 0.470230
vn 0.583174 0.600000 0.547638
vn 0.583174 0.600000 0.547638
vn 0.509940 0.600000 0.616410
vn 0.509940 0.600000 0.616410
vn 0.428662 0.600000 0.675462
vn 0.428662 0.600000 0.675462
vn 0.340624 0.600000 0.723861
vn 0.340624 0.600000 0.723861
vn 0.247214 0.600000 0.760845
vn 0.247214 0.600000 0.760845
vn 0.149906 0.600000 0.785830
vn 0.149906 0.600000 0.785830
vn 0.050232 0.600000 0.798421
vn 0.050232 0.600000 0.798421
vn -0.050232 0.600000 0.798421
vn -0.050232 0.600000 0.798421
vn -0.149905 0.600000 0.785830
vn -0.149905 0.600000 0.785830
vn -0.247213 0.600000 0.760846
vn -0.247213 0.600000 0.760846
vn -0.340624 0.600000 0.723862
vn -0.340624 0.600000 0.723862
vn -0.428663 0.600000 0.675462
vn -0.428663 0.600000 0.675462
vn -0.509937 0.600000 0.616413
vn -0.509937 0.600000 0.616413
vn -0.583174 0.600000 0.547638
vn -0.583174 0.600000 0.547638
vn -0.647215 0.600000 0.470227
vn -0.647215 0.600000 0.470227
vn -0.701044 0.600000 0.385404
vn -0.701044 0.600000 0.385404
vn -0.743821 0.600000 0.294498
vn -0.743821 0.600000 0.294498
vn -0.774867 0.600000 0.198951
vn -0.774867 0.600000 0.198951
vn -0.793691 0.600000 0.100269
vn -0.793691 0.600000 0.100269
vn -0.800000 0.600001 -0.000000
vn -0.800000 0.600001 -0.000000
vn -0.793692 0.600000 -0.100267
vn -0.793692 0.600000 -0.100267
vn -0.774867 0.600001 -0.198951
vn -0.774867 0.600001 -0.198951
vn -0.743821 0.600000 -0.294501
vn -0.743821 0.600000 -0.294501
vn -0.701045 0.600000 -0.385403
vn -0.701045 0.600000 -0.385403
vn -0.647215 0.600000 -0.470226
vn -0.647215 0.600000 -0.470226
vn -0.583176 0.600000 -0.547636
vn -0.583176 0.600000 -0.547636
vn -0.509938 0.600000 -0.616411
vn -0.509938 0.600000 -0.616411
vn -0.428661 0.600000 -0.675463
vn -0.428661 0.600000 -0.675463
vn -0.340623 0.600000 -0.723862
vn -0.340623 0.600000 -0.723862
vn -0.247213 0.600000 -0.760845
vn -0.247213 0.600000 -0.760845
vn -0.149907 0.600000 -0.785829
vn -0.149907 0.600000 -0.785829
vn -0.050233 0.600000 -0.798421
vn -0.050233 0.600000 -0.798421
vn 0.050233 0.600000 -0.798421
vn 0.050233 0.600000 -0.798421
vn 0.149905 0.600000 -0.785830
vn 0.149905 0.600000 -0.785830
vn 0.247213 0.600000 -0.760845
vn 0.247213 0.600000 -0.760845
vn 0.340622 0.600000 -0.723862
vn 0.340622 0.600000 -0.723862
vn 0.428661 0.600000 -0.675463
vn 0.428661 0.600000 -0.675463
vn 0.509939 0.600000 -0.616411
vn 0.509939 0.600000 -0.616411
vn 0.583176 0.600000 -0.547637
vn 0.583176 0.600000 -0.547637
vn 0.647215 0.600000 -0.470226
vn 0.647215 0.600000 -0.470226
vn 0.701046 0.600000 -0.385402
vn 0.701046 0.600000 -0.385402
vn 0.743820 0.600000 -0.294501
vn 0.743820 0.600000 -0.294501
vn 0.774866 0.600001 -0.198951
vn 0.774866 0.600001 -0.198951
vn 0.000000 -1.000000 0.000000
vn 0.000000 -1.000000 0.000000
vn 0.000000 -1.000000 0.000000
vn 0.000000 -1.000000 0.000000
vn 0.000000 -1.000000 0.000000
vn 0.000000 -1.000000 0.000000
vn 0.000000 -1.000000 0.000000
vn 0.000000 -1.000000 0.000000
vn 0.000000 -1.000000 0.000000
vn 0.000000 -1.000000 0.000000
vn 0.000000 -1.000000 0.000000
vn 0.000000 -1.000000 0.000000
vn 0.000000 -1.000000 0.000000
vn 0.000000 -1.000000 0.000000
vn 0.000000 -1.000000 0.000000
vn 0.000000 -1.000000 0.000000
vn 0.000000 -1.000000 0.000000
vn 0.000000 -1.000000 0.000000
vn 0.000000 -1.000000 0.000000
vn 0.000000 -1.000000 0.000000
vn 0.000000 -1.000000 0.000000
vn 0.000000 -1.000000 0.000000
vn 0.000000 -1.000000 0.000000
vn 0.000000 -1.000000 0.000000
vn 0.000000 -1.000000 0.000000
vn 0.000000 -1.000000 0.000000
vn 0.000000 -1.000000 0.000000
vn 0.000000 -1.000000 0.000000
vn 0.000000 -1.000000 0.000000
vn 0.000000 -1.000000 0.000000
vn 0.000000 -1.000000 0.000000
vn 0.000000 -1.000000 0.000000
vn 0.000000 -1.000000 0.000000
vn 0.000000 -1.000000 0.000000
vn 0.000000 -1.000000 0.000000
vn 0.000000 -1.000000 0.000000
vn 0.000000 -1.000000 0.000000
vn 0.000000 -1.000000 0.000000
vn 0.000000 -1.000000 0.000000
vn 0.000000 -1.000000 0.000000
vn 0.000000 -1.000000 0.000000
vn 0.000000 -1.000000 0.000000
vn 0.000000 -1.000000 0.000000
vn 0.000000 -1.000000 0.000000
vn 0.000000 -1.000000 0.000000
vn 0.000000 -1.000000 0.000000
vn 0.000000 -1.000000 0.000000
vn 0.000000 -1.000000 0.000000
vn 0.000000 -1.000000 0.000000
vn 0.000000 -1.000000 0.000000
s off
g polySurface42
usemtl lambert8SG
f 1/151/1 2/150/2 3/149/3 4/148/4 5/147/5 6/146/6 7/145/7 8/144/8 9/143/9 10/142/10 11/141/11 12/140/12 13/139/13 14/138/14 15/137/15 16/136/16 17/135/17 18/134/18 19/133/19 20/132/20 21/131/21 22/130/22 23/129/23 24/128/24 25/127/25 26/126/26 27/125/27 28/124/28 29/123/29 30/122/30 31/121/31 32/120/32 33/119/33 34/118/34 35/117/35 36/116/36 37/115/37 38/114/38 39/113/39 40/112/40 41/111/41 42/110/42 43/109/43 44/108/44 45/107/45 46/106/46 47/105/47 48/104/48 49/103/49 50/102/50
s 1
f 45/153/51 44/152/52 51/100/53 52/101/54
f 44/155/52 43/154/55 53/99/56 51/100/53
f 43/157/55 42/156/57 54/98/58 53/99/56
f 42/159/57 41/158/59 55/97/60 54/98/58
f 41/161/59 40/160/61 56/96/62 55/97/60
f 40/163/61 39/162/63 57/95/64 56/96/62
f 39/165/63 38/164/65 58/94/66 57/95/64
f 38/167/65 37/166/67 59/93/68 58/94/66
f 37/169/67 36/168/69 60/92/70 59/93/68
f 36/171/69 35/170/71 61/91/72 60/92/70
f 35/173/71 34/172/73 62/90/74 61/91/72
f 34/175/73 33/174/75 63/89/76 62/90/74
f 33/177/75 32/176/77 64/88/78 63/89/76
f 32/179/77 31/178/79 65/87/80 64/88/78
f 31/181/79 30/180/81 66/86/82 65/87/80
f 30/183/81 29/182/83 67/85/84 66/86/82
f 29/185/83 28/184/85 68/84/86 67/85/84
f 28/187/85 27/186/87 69/83/88 68/84/86
f 27/189/87 26/188/89 70/82/90 69/83/88
f 26/191/89 25/190/91 71/81/92 70/82/90
f 25/193/91 24/192/93 72/80/94 71/81/92
f 24/195/93 23/194/95 73/79/96 72/80/94
f 23/197/95 22/196/97 74/78/98 73/79/96
f 22/199/97 21/198/99 75/77/100 74/78/98
f 21/201/99 20/200/101 76/76/102 75/77/100
f 20/203/101 19/202/103 77/75/104 76/76/102
f 19/205/103 18/204/105 78/74/106 77/75/104
f 18/207/105 17/206/107 79/73/108 78/74/106
f 17/209/107 16/208/109 80/72/110 79/73/108
f 16/211/109 15/210/111 81/71/112 80/72/110
f 15/213/111 14/212/113 82/70/114 81/71/112
f 14/215/113 13/214/115 83/69/116 82/70/114
f 13/217/115 12/216/117 84/68/118 83/69/116
f 12/219/117 11/218/119 85/67/120 84/68/118
f 11/221/119 10/220/121 86/66/122 85/67/120
f 10/223/121 9/222/123 87/65/124 86/66/122
f 9/225/123 8/224/125 88/64/126 87/65/124
f 8/227/125 7/226/127 89/63/128 88/64/126
f 7/229/127 6/228/129 90/62/130 89/63/128
f 6/231/129 5/230/131 91/61/132 90/62/130
f 5/233/131 4/232/133 92/60/134 91/61/132
f 4/235/133 3/234/135 93/59/136 92/60/134
f 3/237/135 2/236/137 94/58/138 93/59/136
f 2/239/137 1/238/139 95/57/140 94/58/138
f 1/241/139 50/240/141 96/56/142 95/57/140
f 50/243/141 49/242/143 97/55/144 96/56/142
f 49/245/143 48/244/145 98/54/146 97/55/144
f 48/247/145 47/246/147 99/53/148 98/54/146
f 47/249/147 46/248/149 100/52/150 99/53/148
f 46/251/149 45/250/51 52/51/54 100/52/150
s off
f 52/1/151 51/50/152 53/49/153 54/48/154 55/47/155 56/46/156 57/45/157 58/44/158 59/43/159 60/42/160 61/41/161 62/40/162 63/39/163 64/38/164 65/37/165 66/36/166 67/35/167 68/34/168 69/33/169 70/32/170 71/31/171 72/30/172 73/29/173 74/28/174 75/27/175 76/26/176 77/25/177 78/24/178 79/23/179 80/22/180 81/21/181 82/20/182 83/19/183 84/18/184 85/17/185 86/16/186 87/15/187 88/14/188 89/13/189 90/12/190 91/11/191 92/10/192 93/9/193 94/8/194 95/7/195 96/6/196 97/5/197 98/4/198 99/3/199 100/2/200
