# This file uses centimeters as units for non-parametric coordinates.

mtllib 45_Stepped_Large.mtl
g default
v -10.000000 -1.250000 10.000000
v -5.000000 -1.250000 10.000000
v -5.000000 -1.250000 0.000000
v 0.000000 -1.250000 0.000000
v -10.000000 -1.250000 -5.000000
v 0.000000 -1.250000 -5.000000
v 10.000000 -1.250000 -5.000000
v -5.000000 -1.250000 -10.000000
v 10.000000 -1.250000 -10.000000
v -5.000000 1.250000 -10.000000
v 10.000000 1.250000 -10.000000
v -10.000000 1.250000 -5.000000
v -10.000000 1.250000 10.000000
v -5.000000 1.250000 10.000000
v -5.000000 1.250000 0.000000
v 0.000000 1.250000 0.000000
v 0.000000 1.250000 -5.000000
v 10.000000 1.250000 -5.000000
vt 0.000000 0.000000
vt 0.333333 0.000000
vt 0.333333 0.333333
vt 0.666667 0.333333
vt 0.000000 0.666667
vt 0.666667 0.666667
vt 1.000000 0.666667
vt 0.333333 1.000000
vt 1.000000 1.000000
vt 1.000000 1.000000
vt 0.333333 1.000000
vt 0.000000 0.666667
vt 0.000000 0.000000
vt 0.333333 0.000000
vt 0.333333 0.333333
vt 0.666667 0.333333
vt 0.666667 0.666667
vt 1.000000 0.666667
vt 1.000000 1.000000
vt 0.333333 1.000000
vt 0.000000 0.666667
vt 0.000000 0.000000
vt 0.333333 0.000000
vt 0.333333 0.333333
vt 0.666667 0.333333
vt 0.666667 0.666667
vt 1.000000 0.666667
vn 0.000000 1.000000 0.000000
vn 0.000000 1.000000 0.000000
vn 0.000000 1.000000 0.000000
vn 0.000000 1.000000 0.000000
vn 0.000000 1.000000 0.000000
vn 0.000000 1.000000 0.000000
vn 0.000000 1.000000 0.000000
vn 0.000000 1.000000 0.000000
vn 0.000000 1.000000 0.000000
vn 0.000000 -1.000000 0.000000
vn 0.000000 -1.000000 0.000000
vn 0.000000 -1.000000 0.000000
vn 0.000000 -1.000000 0.000000
vn 0.000000 -1.000000 0.000000
vn 0.000000 -1.000000 0.000000
vn 0.000000 -1.000000 0.000000
vn 0.000000 -1.000000 0.000000
vn 0.000000 -1.000000 0.000000
vn 0.000000 0.000000 -1.000000
vn 0.000000 0.000000 -1.000000
vn 0.000000 0.000000 -1.000000
vn 0.000000 0.000000 -1.000000
vn -0.707107 0.000000 -0.707107
vn -0.707107 0.000000 -0.707107
vn -0.707107 0.000000 -0.707107
vn -0.707107 0.000000 -0.707107
vn -1.000000 0.000000 0.000000
vn -1.000000 0.000000 0.000000
vn -1.000000 0.000000 0.000000
vn -1.000000 0.000000 0.000000
vn 0.000000 0.000000 1.000000
vn 0.000000 0.000000 1.000000
vn 0.000000 0.000000 1.000000
vn 0.000000 0.000000 1.000000
vn 1.000000 0.000000 0.000000
vn 1.000000 0.000000 0.000000
vn 1.000000 0.000000 0.000000
vn 1.000000 0.000000 0.000000
vn 0.000000 0.000000 1.000000
vn 0.000000 0.000000 1.000000
vn 0.000000 0.000000 1.000000
vn 0.000000 0.000000 1.000000
vn 1.000000 0.000000 0.000000
vn 1.000000 0.000000 0.000000
vn 1.000000 0.000000 0.000000
vn 1.000000 0.000000 0.000000
vn 0.000000 0.000000 1.000000
vn 0.000000 0.000000 1.000000
vn 0.000000 0.000000 1.000000
vn 0.000000 0.000000 1.000000
vn 1.000000 0.000000 0.000000
vn 1.000000 0.000000 0.000000
vn 1.000000 0.000000 0.000000
vn 1.000000 0.000000 0.000000
s off
g pPlane13
usemtl lambert8SG
f 11/19/1 10/20/2 12/21/3 13/22/4 14/23/5 15/24/6 16/25/7 17/26/8 18/27/9
f 9/10/10 7/18/11 6/17/12 4/16/13 3/15/14 2/14/15 1/13/16 5/12/17 8/11/18
f 9/9/19 8/8/20 10/20/21 11/19/22
f 8/8/23 5/5/24 12/21/25 10/20/26
f 5/5/27 1/1/28 13/22/29 12/21/30
f 1/1/31 2/2/32 14/23/33 13/22/34
f 2/2/35 3/3/36 15/24/37 14/23/38
f 3/3/39 4/4/40 16/25/41 15/24/42
f 4/4/43 6/6/44 17/26/45 16/25/46
f 6/6/47 7/7/48 18/27/49 17/26/50
f 7/7/51 9/9/52 11/19/53 18/27/54
