# This file uses centimeters as units for non-parametric coordinates.

mtllib Arc_Small.mtl
g default
v 10.307770 -1.250000 -3.301236
v 10.307770 -1.250000 -10.287429
v 10.307770 1.250000 -10.287429
v 10.307770 1.250000 -3.301236
v 9.452843 1.250000 -3.301236
v 9.452843 -1.250000 -3.301236
v 7.756470 -1.250000 -3.086936
v 7.756470 1.250000 -3.086936
v 6.100342 -1.250000 -2.661714
v 6.100342 1.250000 -2.661714
v 4.510559 -1.250000 -2.032273
v 4.510559 1.250000 -2.032273
v 3.012199 -1.250000 -1.208547
v 3.012199 1.250000 -1.208547
v 1.628899 -1.250000 -0.203521
v 1.628899 1.250000 -0.203521
v 0.382477 -1.250000 0.966952
v 0.382477 1.250000 0.966952
v -0.707428 -1.250000 2.284419
v -0.707428 1.250000 2.284419
v -1.623611 -1.250000 3.728095
v -1.623611 1.250000 3.728095
v -2.351639 -1.250000 5.275216
v -2.351639 1.250000 5.275216
v -2.880005 -1.250000 6.901383
v -2.880005 1.250000 6.901383
v -3.200401 -1.250000 8.580949
v -3.200401 1.250000 8.580949
v -3.307770 -1.250000 10.287429
v -3.307770 1.250000 10.287429
v 9.013306 1.250000 -10.287429
v 6.444801 1.250000 -9.962951
v 3.937218 1.250000 -9.319114
v 1.530098 1.250000 -8.366067
v -0.738586 1.250000 -7.118846
v -2.833069 1.250000 -5.597117
v -4.720314 1.250000 -3.824880
v -6.370552 1.250000 -1.830083
v -7.757767 1.250000 0.355815
v -8.860077 1.250000 2.698340
v -9.660095 1.250000 5.160551
v -10.145210 1.250000 7.703614
v -10.307770 1.250000 10.287427
v 9.013306 -1.250000 -10.287429
v 6.444801 -1.250000 -9.962951
v 3.937218 -1.250000 -9.319114
v 1.530098 -1.250000 -8.366067
v -0.738586 -1.250000 -7.118846
v -2.833069 -1.250000 -5.597117
v -4.720314 -1.250000 -3.824880
v -6.370552 -1.250000 -1.830083
v -7.757767 -1.250000 0.355815
v -8.860077 -1.250000 2.698340
v -9.660095 -1.250000 5.160551
v -10.145210 -1.250000 7.703614
v -10.307770 -1.250000 10.287427
vt 0.260000 1.000000
vt 0.280000 1.000000
vt 0.300000 1.000000
vt 0.320000 1.000000
vt 0.340000 1.000000
vt 0.360000 1.000000
vt 0.380000 1.000000
vt 0.400000 1.000000
vt 0.420000 1.000000
vt 0.440000 1.000000
vt 0.460000 1.000000
vt 0.480000 1.000000
vt 0.500000 1.000000
vt 0.260000 0.750000
vt 0.280000 0.750000
vt 0.300000 0.750000
vt 0.320000 0.750000
vt 0.340000 0.750000
vt 0.360000 0.750000
vt 0.380000 0.750000
vt 0.400000 0.750000
vt 0.420000 0.750000
vt 0.440000 0.750000
vt 0.460000 0.750000
vt 0.480000 0.750000
vt 0.260000 0.500000
vt 0.280000 0.500000
vt 0.300000 0.500000
vt 0.320000 0.500000
vt 0.340000 0.500000
vt 0.360000 0.500000
vt 0.380000 0.500000
vt 0.400000 0.500000
vt 0.420000 0.500000
vt 0.440000 0.500000
vt 0.460000 0.500000
vt 0.480000 0.500000
vt 0.500000 0.500000
vt 0.260000 0.250000
vt 0.280000 0.250000
vt 0.300000 0.250000
vt 0.320000 0.250000
vt 0.340000 0.250000
vt 0.360000 0.250000
vt 0.380000 0.250000
vt 0.400000 0.250000
vt 0.420000 0.250000
vt 0.440000 0.250000
vt 0.460000 0.250000
vt 0.480000 0.250000
vt 0.500000 0.250000
vt 0.260000 0.000000
vt 0.280000 0.000000
vt 0.300000 0.000000
vt 0.320000 0.000000
vt 0.340000 0.000000
vt 0.360000 0.000000
vt 0.380000 0.000000
vt 0.400000 0.000000
vt 0.420000 0.000000
vt 0.440000 0.000000
vt 0.460000 0.000000
vt 0.480000 0.000000
vt 0.500000 0.000000
vt 0.457253 0.625000
vt 0.469534 0.625000
vt 0.469534 0.650000
vt 0.457253 0.650000
vt 0.500000 0.750000
vt 0.500000 0.750000
vt 0.221537 0.125000
vt 0.180442 0.125000
vt 0.180442 0.075000
vt 0.221537 0.075000
vt 0.250000 0.750000
vt 0.250000 1.000000
vt 0.250000 0.500000
vt 0.250000 0.750000
vt 0.250000 0.250000
vt 0.250000 0.500000
vt 0.250000 0.000000
vt 0.250000 0.250000
vn 1.000000 0.000000 0.000000
vn 1.000000 0.000000 0.000000
vn 1.000000 0.000000 0.000000
vn 1.000000 0.000000 0.000000
vn 0.000000 0.000000 1.000000
vn 0.000000 0.000000 1.000000
vn 0.062790 0.000000 0.998027
vn 0.062790 0.000000 0.998027
vn 0.187381 0.000000 0.982287
vn 0.187381 0.000000 0.982287
vn 0.309017 0.000000 0.951056
vn 0.309017 0.000000 0.951056
vn 0.425779 0.000000 0.904827
vn 0.425779 0.000000 0.904827
vn 0.535826 0.000000 0.844329
vn 0.535826 0.000000 0.844329
vn 0.637425 0.000000 0.770513
vn 0.637425 0.000000 0.770513
vn 0.728969 0.000000 0.684547
vn 0.728969 0.000000 0.684547
vn 0.809017 0.000000 0.587785
vn 0.809017 0.000000 0.587785
vn 0.876306 0.000000 0.481755
vn 0.876306 0.000000 0.481755
vn 0.929777 0.000000 0.368124
vn 0.929777 0.000000 0.368124
vn 0.968584 0.000000 0.248688
vn 0.968584 0.000000 0.248688
vn 0.992114 0.000000 0.125336
vn 0.992114 0.000000 0.125336
vn 0.564516 -0.565632 0.601151
vn 0.564516 0.565632 0.601151
vn 0.000000 1.000000 0.000000
vn 0.000000 1.000000 0.000000
vn 0.000000 1.000000 0.000000
vn 0.000000 1.000000 0.000000
vn 0.000000 1.000000 0.000000
vn 0.000000 1.000000 0.000000
vn 0.000000 1.000000 0.000000
vn 0.000000 1.000000 0.000000
vn 0.000000 1.000000 0.000000
vn 0.000000 1.000000 0.000000
vn 0.000000 1.000000 0.000000
vn 0.000000 1.000000 0.000000
vn 0.000000 1.000000 0.000000
vn 0.000000 1.000000 0.000000
vn 0.000000 1.000000 0.000000
vn 0.000000 1.000000 0.000000
vn 0.000000 1.000000 0.000000
vn 0.000000 1.000000 0.000000
vn 0.000000 1.000000 0.000000
vn 0.000000 1.000000 0.000000
vn 0.000000 1.000000 0.000000
vn 0.000000 1.000000 0.000000
vn 0.000000 1.000000 0.000000
vn 0.000000 1.000000 0.000000
vn 0.000000 1.000000 0.000000
vn 0.000000 1.000000 0.000000
vn -0.588664 0.589827 0.552792
vn 0.000000 0.000000 -1.000000
vn 0.000000 0.000000 -1.000000
vn -0.062791 0.000000 -0.998027
vn -0.062791 0.000000 -0.998027
vn -0.187381 0.000000 -0.982287
vn -0.187381 0.000000 -0.982287
vn -0.309017 0.000000 -0.951057
vn -0.309017 0.000000 -0.951057
vn -0.425780 0.000000 -0.904827
vn -0.425780 0.000000 -0.904827
vn -0.535827 0.000000 -0.844328
vn -0.535827 0.000000 -0.844328
vn -0.637423 0.000000 -0.770514
vn -0.637423 0.000000 -0.770514
vn -0.728969 0.000000 -0.684547
vn -0.728969 0.000000 -0.684547
vn -0.809017 0.000000 -0.587785
vn -0.809017 0.000000 -0.587785
vn -0.876306 0.000000 -0.481754
vn -0.876306 0.000000 -0.481754
vn -0.929777 0.000000 -0.368124
vn -0.929777 0.000000 -0.368124
vn -0.968583 0.000000 -0.248689
vn -0.968583 0.000000 -0.248689
vn -0.992115 0.000000 -0.125333
vn -0.992115 0.000000 -0.125333
vn -0.588664 -0.589827 0.552792
vn 0.000000 -1.000000 0.000000
vn 0.000000 -1.000000 0.000000
vn 0.000000 -1.000000 0.000000
vn 0.000000 -1.000000 0.000000
vn 0.000000 -1.000000 0.000000
vn 0.000000 -1.000000 0.000000
vn 0.000000 -1.000000 0.000000
vn 0.000000 -1.000000 0.000000
vn 0.000000 -1.000000 0.000000
vn 0.000000 -1.000000 0.000000
vn 0.000000 -1.000000 0.000000
vn 0.000000 -1.000000 0.000000
vn 0.000000 -1.000000 0.000000
vn 0.000000 -1.000000 0.000000
vn 0.000000 -1.000000 0.000000
vn 0.000000 -1.000000 0.000000
vn 0.000000 -1.000000 0.000000
vn 0.000000 -1.000000 0.000000
vn 0.000000 -1.000000 0.000000
vn 0.000000 -1.000000 0.000000
vn 0.000000 -1.000000 0.000000
vn 0.000000 -1.000000 0.000000
vn 0.000000 -1.000000 0.000000
vn 0.000000 -1.000000 0.000000
vn 0.000000 -1.000000 0.000000
vn 0.000000 -1.000000 0.000000
s off
g polySurface34
usemtl lambert8SG
f 1/74/1 2/73/2 3/72/3 4/71/4
s 1
f 1/76/5 4/75/6 5/14/7 6/1/8
f 7/2/9 6/1/8 5/14/7 8/15/10
f 9/3/11 7/2/9 8/15/10 10/16/12
f 11/4/13 9/3/11 10/16/12 12/17/14
f 13/5/15 11/4/13 12/17/14 14/18/16
f 15/6/17 13/5/15 14/18/16 16/19/18
f 17/7/19 15/6/17 16/19/18 18/20/20
f 19/8/21 17/7/19 18/20/20 20/21/22
f 21/9/23 19/8/21 20/21/22 22/22/24
f 23/10/25 21/9/23 22/22/24 24/23/26
f 25/11/27 23/10/25 24/23/26 26/24/28
f 27/12/29 25/11/27 26/24/28 28/25/30
f 29/13/31 27/12/29 28/25/30 30/70/32
f 4/78/33 3/77/34 31/26/35 5/14/36
f 8/15/37 5/14/36 31/26/35 32/27/38
f 10/16/39 8/15/37 32/27/38 33/28/40
f 12/17/41 10/16/39 33/28/40 34/29/42
f 14/18/43 12/17/41 34/29/42 35/30/44
f 16/19/45 14/18/43 35/30/44 36/31/46
f 18/20/47 16/19/45 36/31/46 37/32/48
f 20/21/49 18/20/47 37/32/48 38/33/50
f 22/22/51 20/21/49 38/33/50 39/34/52
f 24/23/53 22/22/51 39/34/52 40/35/54
f 26/24/55 24/23/53 40/35/54 41/36/56
f 28/25/57 26/24/55 41/36/56 42/37/58
f 30/69/32 28/25/57 42/37/58 43/38/59
f 3/80/60 2/79/61 44/39/62 31/26/63
f 32/27/64 31/26/63 44/39/62 45/40/65
f 33/28/66 32/27/64 45/40/65 46/41/67
f 34/29/68 33/28/66 46/41/67 47/42/69
f 35/30/70 34/29/68 47/42/69 48/43/71
f 36/31/72 35/30/70 48/43/71 49/44/73
f 37/32/74 36/31/72 49/44/73 50/45/75
f 38/33/76 37/32/74 50/45/75 51/46/77
f 39/34/78 38/33/76 51/46/77 52/47/79
f 40/35/80 39/34/78 52/47/79 53/48/81
f 41/36/82 40/35/80 53/48/81 54/49/83
f 42/37/84 41/36/82 54/49/83 55/50/85
f 43/38/59 42/37/84 55/50/85 56/51/86
f 2/82/87 1/81/88 6/52/89 44/39/90
f 45/40/91 44/39/90 6/52/89 7/53/92
f 46/41/93 45/40/91 7/53/92 9/54/94
f 47/42/95 46/41/93 9/54/94 11/55/96
f 48/43/97 47/42/95 11/55/96 13/56/98
f 49/44/99 48/43/97 13/56/98 15/57/100
f 50/45/101 49/44/99 15/57/100 17/58/102
f 51/46/103 50/45/101 17/58/102 19/59/104
f 52/47/105 51/46/103 19/59/104 21/60/106
f 53/48/107 52/47/105 21/60/106 23/61/108
f 54/49/109 53/48/107 23/61/108 25/62/110
f 55/50/111 54/49/109 25/62/110 27/63/112
f 56/51/86 55/50/111 27/63/112 29/64/31
f 56/68/86 29/67/31 30/66/32 43/65/59
