# This file uses centimeters as units for non-parametric coordinates.

mtllib Frustum_Short.mtl
g default
v -5.303299 1.250000 -5.303301
v -5.303303 1.250000 5.303301
v 5.303303 1.250000 5.303301
v 5.303303 1.250000 -5.303301
v 7.071068 -1.250000 7.071068
v 7.071068 -1.250000 -7.071068
v -7.071068 -1.250000 7.071068
v -7.071068 -1.250000 -7.071069
vt 0.500000 0.000000
vt 0.250000 0.250000
vt 0.500000 0.500000
vt 0.750000 0.250000
vt 0.250000 0.500000
vt 0.375000 0.500000
vt 0.500000 0.500000
vt 0.625000 0.500000
vt 0.750000 0.500000
vt 0.500000 0.800000
vt 0.575000 0.875000
vt 0.500000 0.950000
vt 0.425000 0.875000
vt 0.593750 0.625000
vt 0.687500 0.625000
vt 0.500000 0.625000
vt 0.593750 0.625000
vt 0.406250 0.625000
vt 0.500000 0.625000
vt 0.312500 0.625000
vt 0.406250 0.625000
vn 0.000000 1.000000 0.000000
vn 0.000000 1.000000 0.000000
vn 0.000000 1.000000 0.000000
vn 0.000000 1.000000 0.000000
vn 0.816497 0.577350 0.000000
vn 0.816497 0.577350 0.000000
vn 0.816497 0.577350 0.000000
vn 0.816497 0.577350 0.000000
vn 0.000000 0.577350 0.816497
vn 0.000000 0.577350 0.816497
vn 0.000000 0.577350 0.816497
vn 0.000000 0.577350 0.816497
vn -0.816497 0.577350 -0.000000
vn -0.816497 0.577350 -0.000000
vn -0.816497 0.577350 -0.000000
vn -0.816497 0.577350 -0.000000
vn 0.000000 0.577350 -0.816497
vn 0.000000 0.577350 -0.816497
vn 0.000000 0.577350 -0.816497
vn 0.000000 0.577350 -0.816497
vn 0.000000 -1.000000 0.000000
vn 0.000000 -1.000000 0.000000
vn 0.000000 -1.000000 0.000000
vn 0.000000 -1.000000 0.000000
s off
g polySurface37
usemtl lambert8SG
f 1/13/1 2/12/2 3/11/3 4/10/4
f 4/15/5 3/14/6 5/8/7 6/9/8
f 3/17/9 2/16/10 7/7/11 5/8/12
f 2/19/13 1/18/14 8/6/15 7/7/16
f 1/21/17 4/20/18 6/5/19 8/6/20
f 6/1/21 5/4/22 7/3/23 8/2/24
