# This file uses centimeters as units for non-parametric coordinates.

mtllib Half_Pipe.mtl
g default
v 7.500000 3.742603 -7.500000
v 5.799999 3.742603 -7.500000
v 5.799999 3.742603 7.500000
v 7.500000 3.742603 7.500000
v -5.800003 3.742603 -7.500000
v -7.500004 3.742603 -7.500000
v -7.500004 3.742603 7.500000
v -5.800003 3.742603 7.500000
v 7.440868 2.802605 -7.500000
v 5.754272 3.015669 -7.500000
v 7.264381 1.877428 -7.500000
v 5.617790 2.300200 -7.500000
v 6.973330 0.981668 -7.500000
v 5.392708 1.607477 -7.500000
v 6.572306 0.129448 -7.500000
v 5.082584 0.948429 -7.500000
v 6.067633 -0.665789 -7.500000
v 4.692303 0.333445 -7.500000
v 5.467270 -1.391502 -7.500000
v 4.228024 -0.227776 -7.500000
v 4.780685 -2.036251 -7.500000
v 3.697063 -0.726379 -7.500000
v 4.018703 -2.589861 -7.500000
v 3.107800 -1.154505 -7.500000
v 3.193348 -3.043606 -7.500000
v 2.469521 -1.505400 -7.500000
v 2.317631 -3.390326 -7.500000
v 1.792301 -1.773529 -7.500000
v 1.405361 -3.624557 -7.500000
v 1.086811 -1.954668 -7.500000
v 0.470928 -3.742603 -7.500000
v 0.364185 -2.045958 -7.500000
v -0.470928 -3.742603 -7.500000
v -0.364185 -2.045956 -7.500000
v -1.405361 -3.624557 -7.500000
v -1.086815 -1.954668 -7.500000
v -2.317627 -3.390326 -7.500000
v -1.792301 -1.773529 -7.500000
v -3.193348 -3.043606 -7.500000
v -2.469521 -1.505398 -7.500000
v -4.018703 -2.589861 -7.500000
v -3.107800 -1.154503 -7.500000
v -4.780682 -2.036251 -7.500000
v -3.697063 -0.726377 -7.500000
v -5.467270 -1.391504 -7.500000
v -4.228020 -0.227772 -7.500000
v -6.067631 -0.665791 -7.500000
v -4.692303 0.333447 -7.500000
v -6.572304 0.129448 -7.500000
v -5.082581 0.948431 -7.500000
v -6.973328 0.981667 -7.500000
v -5.392708 1.607479 -7.500000
v -7.264378 1.877428 -7.500000
v -5.617786 2.300201 -7.500000
v -7.440865 2.802603 -7.500000
v -5.754269 3.015671 -7.500000
v 7.440868 2.802605 7.500000
v 7.264381 1.877428 7.500000
v 6.973330 0.981668 7.500000
v 6.572306 0.129448 7.500000
v 6.067633 -0.665789 7.500000
v 5.467270 -1.391502 7.500000
v 4.780685 -2.036251 7.500000
v 4.018703 -2.589861 7.500000
v 3.193348 -3.043606 7.500000
v 2.317631 -3.390326 7.500000
v 1.405361 -3.624557 7.500000
v 0.470928 -3.742603 7.500000
v -0.470928 -3.742603 7.500000
v -1.405361 -3.624557 7.500000
v -2.317627 -3.390326 7.500000
v -3.193348 -3.043606 7.500000
v -4.018703 -2.589861 7.500000
v -4.780682 -2.036251 7.500000
v -5.467270 -1.391504 7.500000
v -6.067631 -0.665791 7.500000
v -6.572304 0.129448 7.500000
v -6.973328 0.981667 7.500000
v -7.264378 1.877428 7.500000
v -7.440865 2.802603 7.500000
v 5.754272 3.015669 7.500000
v 5.617790 2.300200 7.500000
v 5.392708 1.607477 7.500000
v 5.082584 0.948429 7.500000
v 4.692303 0.333445 7.500000
v 4.228024 -0.227776 7.500000
v 3.697063 -0.726379 7.500000
v 3.107800 -1.154505 7.500000
v 2.469521 -1.505400 7.500000
v 1.792301 -1.773529 7.500000
v 1.086811 -1.954668 7.500000
v 0.364185 -2.045958 7.500000
v -0.364185 -2.045956 7.500000
v -1.086815 -1.954668 7.500000
v -1.792301 -1.773529 7.500000
v -2.469521 -1.505398 7.500000
v -3.107800 -1.154503 7.500000
v -3.697063 -0.726377 7.500000
v -4.228020 -0.227772 7.500000
v -4.692303 0.333447 7.500000
v -5.082581 0.948431 7.500000
v -5.392708 1.607479 7.500000
v -5.617786 2.300201 7.500000
v -5.754269 3.015671 7.500000
vt 0.500000 1.000000
vt 0.520000 1.000000
vt 0.540000 1.000000
vt 0.560000 1.000000
vt 0.580000 1.000000
vt 0.600000 1.000000
vt 0.620000 1.000000
vt 0.640000 1.000000
vt 0.660000 1.000000
vt 0.680000 1.000000
vt 0.700000 1.000000
vt 0.720000 1.000000
vt 0.740000 1.000000
vt 0.760000 1.000000
vt 0.780000 1.000000
vt 0.800000 1.000000
vt 0.820000 1.000000
vt 0.840000 1.000000
vt 0.860000 1.000000
vt 0.880000 1.000000
vt 0.900000 1.000000
vt 0.920000 1.000000
vt 0.940000 1.000000
vt 0.960000 1.000000
vt 0.980000 1.000000
vt 1.000000 1.000000
vt 0.500000 0.750000
vt 0.520000 0.750000
vt 0.540000 0.750000
vt 0.560000 0.750000
vt 0.580000 0.750000
vt 0.600000 0.750000
vt 0.620000 0.750000
vt 0.640000 0.750000
vt 0.660000 0.750000
vt 0.680000 0.750000
vt 0.700000 0.750000
vt 0.720000 0.750000
vt 0.740000 0.750000
vt 0.760000 0.750000
vt 0.780000 0.750000
vt 0.800000 0.750000
vt 0.820000 0.750000
vt 0.840000 0.750000
vt 0.860000 0.750000
vt 0.880000 0.750000
vt 0.900000 0.750000
vt 0.920000 0.750000
vt 0.940000 0.750000
vt 0.960000 0.750000
vt 0.980000 0.750000
vt 0.520000 0.500000
vt 0.540000 0.500000
vt 0.560000 0.500000
vt 0.580000 0.500000
vt 0.600000 0.500000
vt 0.620000 0.500000
vt 0.640000 0.500000
vt 0.660000 0.500000
vt 0.680000 0.500000
vt 0.700000 0.500000
vt 0.720000 0.500000
vt 0.740000 0.500000
vt 0.760000 0.500000
vt 0.780000 0.500000
vt 0.800000 0.500000
vt 0.820000 0.500000
vt 0.840000 0.500000
vt 0.860000 0.500000
vt 0.880000 0.500000
vt 0.900000 0.500000
vt 0.920000 0.500000
vt 0.940000 0.500000
vt 0.960000 0.500000
vt 0.980000 0.500000
vt 1.000000 0.500000
vt 0.500000 0.250000
vt 0.520000 0.250000
vt 0.540000 0.250000
vt 0.560000 0.250000
vt 0.580000 0.250000
vt 0.600000 0.250000
vt 0.620000 0.250000
vt 0.640000 0.250000
vt 0.660000 0.250000
vt 0.680000 0.250000
vt 0.700000 0.250000
vt 0.720000 0.250000
vt 0.740000 0.250000
vt 0.760000 0.250000
vt 0.780000 0.250000
vt 0.800000 0.250000
vt 0.820000 0.250000
vt 0.840000 0.250000
vt 0.860000 0.250000
vt 0.880000 0.250000
vt 0.900000 0.250000
vt 0.920000 0.250000
vt 0.940000 0.250000
vt 0.960000 0.250000
vt 0.980000 0.250000
vt 1.000000 0.250000
vt 0.500000 0.000000
vt 0.520000 0.000000
vt 0.540000 0.000000
vt 0.560000 0.000000
vt 0.580000 0.000000
vt 0.600000 0.000000
vt 0.620000 0.000000
vt 0.640000 0.000000
vt 0.660000 0.000000
vt 0.680000 0.000000
vt 0.700000 0.000000
vt 0.720000 0.000000
vt 0.740000 0.000000
vt 0.760000 0.000000
vt 0.780000 0.000000
vt 0.800000 0.000000
vt 0.820000 0.000000
vt 0.840000 0.000000
vt 0.860000 0.000000
vt 0.880000 0.000000
vt 0.900000 0.000000
vt 0.920000 0.000000
vt 0.940000 0.000000
vt 0.960000 0.000000
vt 0.980000 0.000000
vt 1.000000 0.000000
vt 0.593750 0.090909
vt 0.572500 0.090909
vt 0.572500 0.022727
vt 0.593750 0.022727
vt 0.427500 0.090909
vt 0.406250 0.090909
vt 0.406250 0.022727
vt 0.427500 0.022727
vt 0.500000 0.500000
vt 1.000000 0.750000
vt 0.500000 0.500000
vt 1.000000 0.750000
vn 0.588662 0.552795 -0.589826
vn -0.564519 0.601145 -0.565635
vn -0.564519 0.601145 0.565635
vn 0.588662 0.552795 0.589826
vn 0.564517 0.601149 -0.565633
vn -0.588664 0.552792 -0.589827
vn -0.588664 0.552792 0.589827
vn 0.564517 0.601149 0.565633
vn 0.000000 0.000000 -1.000000
vn 0.000000 0.000000 -1.000000
vn 0.000000 0.000000 -1.000000
vn 0.000000 0.000000 -1.000000
vn 0.000000 0.000000 -1.000000
vn 0.000000 0.000000 -1.000000
vn 0.000000 0.000000 -1.000000
vn 0.000000 0.000000 -1.000000
vn 0.000000 0.000000 -1.000000
vn 0.000000 0.000000 -1.000000
vn 0.000000 0.000000 -1.000000
vn 0.000000 0.000000 -1.000000
vn 0.000000 0.000000 -1.000000
vn 0.000000 0.000000 -1.000000
vn 0.000000 0.000000 -1.000000
vn 0.000000 0.000000 -1.000000
vn 0.000000 0.000000 -1.000000
vn 0.000000 0.000000 -1.000000
vn 0.000000 0.000000 -1.000000
vn 0.000000 0.000000 -1.000000
vn 0.000000 0.000000 -1.000000
vn 0.000000 0.000000 -1.000000
vn 0.000000 0.000000 -1.000000
vn 0.000000 0.000000 -1.000000
vn 0.000000 0.000000 -1.000000
vn 0.000000 0.000000 -1.000000
vn 0.000000 0.000000 -1.000000
vn 0.000000 0.000000 -1.000000
vn 0.000000 0.000000 -1.000000
vn 0.000000 0.000000 -1.000000
vn 0.000000 0.000000 -1.000000
vn 0.000000 0.000000 -1.000000
vn 0.000000 0.000000 -1.000000
vn 0.000000 0.000000 -1.000000
vn 0.000000 0.000000 -1.000000
vn 0.000000 0.000000 -1.000000
vn 0.000000 0.000000 -1.000000
vn 0.000000 0.000000 -1.000000
vn 0.000000 0.000000 -1.000000
vn 0.000000 0.000000 -1.000000
vn 0.000000 0.000000 -1.000000
vn 0.000000 0.000000 -1.000000
vn 0.000000 0.000000 -1.000000
vn 0.000000 0.000000 -1.000000
vn 0.000000 0.000000 -1.000000
vn 0.000000 0.000000 -1.000000
vn 0.000000 0.000000 -1.000000
vn 0.000000 0.000000 -1.000000
vn 0.992115 -0.125329 0.000000
vn 0.992115 -0.125329 0.000000
vn 0.968583 -0.248691 0.000000
vn 0.968583 -0.248691 0.000000
vn 0.929776 -0.368125 0.000000
vn 0.929776 -0.368125 0.000000
vn 0.876307 -0.481754 0.000000
vn 0.876307 -0.481754 0.000000
vn 0.809017 -0.587786 0.000000
vn 0.809017 -0.587786 0.000000
vn 0.728969 -0.684546 0.000000
vn 0.728969 -0.684546 0.000000
vn 0.637424 -0.770513 0.000000
vn 0.637424 -0.770513 0.000000
vn 0.535827 -0.844328 0.000000
vn 0.535827 -0.844328 0.000000
vn 0.425780 -0.904827 0.000000
vn 0.425780 -0.904827 0.000000
vn 0.309017 -0.951057 0.000000
vn 0.309017 -0.951057 0.000000
vn 0.187382 -0.982287 0.000000
vn 0.187382 -0.982287 0.000000
vn 0.062790 -0.998027 0.000000
vn 0.062790 -0.998027 0.000000
vn -0.062790 -0.998027 0.000000
vn -0.062790 -0.998027 0.000000
vn -0.187382 -0.982287 0.000000
vn -0.187382 -0.982287 0.000000
vn -0.309017 -0.951057 0.000000
vn -0.309017 -0.951057 0.000000
vn -0.425779 -0.904827 0.000000
vn -0.425779 -0.904827 0.000000
vn -0.535828 -0.844327 0.000000
vn -0.535828 -0.844327 0.000000
vn -0.637423 -0.770514 0.000000
vn -0.637423 -0.770514 0.000000
vn -0.728968 -0.684547 0.000000
vn -0.728968 -0.684547 0.000000
vn -0.809018 -0.587784 0.000000
vn -0.809018 -0.587784 0.000000
vn -0.876307 -0.481753 0.000000
vn -0.876307 -0.481753 0.000000
vn -0.929777 -0.368125 0.000000
vn -0.929777 -0.368125 0.000000
vn -0.968583 -0.248690 0.000000
vn -0.968583 -0.248690 0.000000
vn -0.992115 -0.125333 0.000000
vn -0.992115 -0.125333 0.000000
vn 0.000000 0.000000 1.000000
vn 0.000000 0.000000 1.000000
vn 0.000000 0.000000 1.000000
vn 0.000000 0.000000 1.000000
vn 0.000000 0.000000 1.000000
vn 0.000000 0.000000 1.000000
vn 0.000000 0.000000 1.000000
vn 0.000000 0.000000 1.000000
vn 0.000000 0.000000 1.000000
vn 0.000000 0.000000 1.000000
vn 0.000000 0.000000 1.000000
vn 0.000000 0.000000 1.000000
vn 0.000000 0.000000 1.000000
vn 0.000000 0.000000 1.000000
vn 0.000000 0.000000 1.000000
vn 0.000000 0.000000 1.000000
vn 0.000000 0.000000 1.000000
vn 0.000000 0.000000 1.000000
vn 0.000000 0.000000 1.000000
vn 0.000000 0.000000 1.000000
vn 0.000000 0.000000 1.000000
vn 0.000000 0.000000 1.000000
vn 0.000000 0.000000 1.000000
vn 0.000000 0.000000 1.000000
vn 0.000000 0.000000 1.000000
vn 0.000000 0.000000 1.000000
vn 0.000000 0.000000 1.000000
vn 0.000000 0.000000 1.000000
vn 0.000000 0.000000 1.000000
vn 0.000000 0.000000 1.000000
vn 0.000000 0.000000 1.000000
vn 0.000000 0.000000 1.000000
vn 0.000000 0.000000 1.000000
vn 0.000000 0.000000 1.000000
vn 0.000000 0.000000 1.000000
vn 0.000000 0.000000 1.000000
vn 0.000000 0.000000 1.000000
vn 0.000000 0.000000 1.000000
vn 0.000000 0.000000 1.000000
vn 0.000000 0.000000 1.000000
vn 0.000000 0.000000 1.000000
vn 0.000000 0.000000 1.000000
vn 0.000000 0.000000 1.000000
vn 0.000000 0.000000 1.000000
vn 0.000000 0.000000 1.000000
vn 0.000000 0.000000 1.000000
vn 0.000000 0.000000 1.000000
vn 0.000000 0.000000 1.000000
vn -0.992116 0.125327 0.000000
vn -0.992116 0.125327 0.000000
vn -0.968583 0.248691 0.000000
vn -0.968583 0.248691 0.000000
vn -0.929776 0.368126 0.000000
vn -0.929776 0.368126 0.000000
vn -0.876307 0.481754 0.000000
vn -0.876307 0.481754 0.000000
vn -0.809017 0.587785 0.000000
vn -0.809017 0.587785 0.000000
vn -0.728969 0.684546 0.000000
vn -0.728969 0.684546 0.000000
vn -0.637424 0.770514 0.000000
vn -0.637424 0.770514 0.000000
vn -0.535826 0.844329 0.000000
vn -0.535826 0.844329 0.000000
vn -0.425778 0.904828 0.000000
vn -0.425778 0.904828 0.000000
vn -0.309016 0.951057 0.000000
vn -0.309016 0.951057 0.000000
vn -0.187382 0.982287 0.000000
vn -0.187382 0.982287 0.000000
vn -0.062790 0.998027 0.000000
vn -0.062790 0.998027 0.000000
vn 0.062791 0.998027 0.000000
vn 0.062791 0.998027 0.000000
vn 0.187381 0.982287 0.000000
vn 0.187381 0.982287 0.000000
vn 0.309018 0.951056 0.000000
vn 0.309018 0.951056 0.000000
vn 0.425779 0.904827 0.000000
vn 0.425779 0.904827 0.000000
vn 0.535826 0.844329 0.000000
vn 0.535826 0.844329 0.000000
vn 0.637426 0.770512 0.000000
vn 0.637426 0.770512 0.000000
vn 0.728969 0.684546 0.000000
vn 0.728969 0.684546 0.000000
vn 0.809017 0.587785 0.000000
vn 0.809017 0.587785 0.000000
vn 0.876307 0.481754 0.000000
vn 0.876307 0.481754 0.000000
vn 0.929776 0.368126 0.000000
vn 0.929776 0.368126 0.000000
vn 0.968584 0.248689 0.000000
vn 0.968584 0.248689 0.000000
vn 0.992115 0.125332 0.000000
vn 0.992115 0.125332 0.000000
s 1
g polySurface46
usemtl lambert8SG
f 1/132/1 2/131/2 3/130/3 4/129/4
f 5/136/5 6/135/6 7/134/7 8/133/8
f 1/102/1 9/101/9 10/127/10 2/128/2
f 9/101/9 11/100/11 12/126/12 10/127/10
f 11/100/11 13/99/13 14/125/14 12/126/12
f 13/99/13 15/98/15 16/124/16 14/125/14
f 15/98/15 17/97/17 18/123/18 16/124/16
f 17/97/17 19/96/19 20/122/20 18/123/18
f 19/96/19 21/95/21 22/121/22 20/122/20
f 21/95/21 23/94/23 24/120/24 22/121/22
f 23/94/23 25/93/25 26/119/26 24/120/24
f 25/93/25 27/92/27 28/118/28 26/119/26
f 27/92/27 29/91/29 30/117/30 28/118/28
f 29/91/29 31/90/31 32/116/32 30/117/30
f 31/90/31 33/89/33 34/115/34 32/116/32
f 33/89/33 35/88/35 36/114/36 34/115/34
f 35/88/35 37/87/37 38/113/38 36/114/36
f 37/87/37 39/86/39 40/112/40 38/113/38
f 39/86/39 41/85/41 42/111/42 40/112/40
f 41/85/41 43/84/43 44/110/44 42/111/42
f 43/84/43 45/83/45 46/109/46 44/110/44
f 45/83/45 47/82/47 48/108/48 46/109/46
f 47/82/47 49/81/49 50/107/50 48/108/48
f 49/81/49 51/80/51 52/106/52 50/107/50
f 51/80/51 53/79/53 54/105/54 52/106/52
f 53/79/53 55/78/55 56/104/56 54/105/54
f 55/78/55 6/77/6 5/103/5 56/104/56
f 4/76/4 57/75/57 9/101/58 1/102/1
f 57/75/57 58/74/59 11/100/60 9/101/58
f 58/74/59 59/73/61 13/99/62 11/100/60
f 59/73/61 60/72/63 15/98/64 13/99/62
f 60/72/63 61/71/65 17/97/66 15/98/64
f 61/71/65 62/70/67 19/96/68 17/97/66
f 62/70/67 63/69/69 21/95/70 19/96/68
f 63/69/69 64/68/71 23/94/72 21/95/70
f 64/68/71 65/67/73 25/93/74 23/94/72
f 65/67/73 66/66/75 27/92/76 25/93/74
f 66/66/75 67/65/77 29/91/78 27/92/76
f 67/65/77 68/64/79 31/90/80 29/91/78
f 68/64/79 69/63/81 33/89/82 31/90/80
f 69/63/81 70/62/83 35/88/84 33/89/82
f 70/62/83 71/61/85 37/87/86 35/88/84
f 71/61/85 72/60/87 39/86/88 37/87/86
f 72/60/87 73/59/89 41/85/90 39/86/88
f 73/59/89 74/58/91 43/84/92 41/85/90
f 74/58/91 75/57/93 45/83/94 43/84/92
f 75/57/93 76/56/95 47/82/96 45/83/94
f 76/56/95 77/55/97 49/81/98 47/82/96
f 77/55/97 78/54/99 51/80/100 49/81/98
f 78/54/99 79/53/101 53/79/102 51/80/100
f 79/53/101 80/52/103 55/78/104 53/79/102
f 80/52/103 7/137/7 6/77/6 55/78/104
f 3/138/3 81/51/105 57/75/106 4/76/4
f 81/51/105 82/50/107 58/74/108 57/75/106
f 82/50/107 83/49/109 59/73/110 58/74/108
f 83/49/109 84/48/111 60/72/112 59/73/110
f 84/48/111 85/47/113 61/71/114 60/72/112
f 85/47/113 86/46/115 62/70/116 61/71/114
f 86/46/115 87/45/117 63/69/118 62/70/116
f 87/45/117 88/44/119 64/68/120 63/69/118
f 88/44/119 89/43/121 65/67/122 64/68/120
f 89/43/121 90/42/123 66/66/124 65/67/122
f 90/42/123 91/41/125 67/65/126 66/66/124
f 91/41/125 92/40/127 68/64/128 67/65/126
f 92/40/127 93/39/129 69/63/130 68/64/128
f 93/39/129 94/38/131 70/62/132 69/63/130
f 94/38/131 95/37/133 71/61/134 70/62/132
f 95/37/133 96/36/135 72/60/136 71/61/134
f 96/36/135 97/35/137 73/59/138 72/60/136
f 97/35/137 98/34/139 74/58/140 73/59/138
f 98/34/139 99/33/141 75/57/142 74/58/140
f 99/33/141 100/32/143 76/56/144 75/57/142
f 100/32/143 101/31/145 77/55/146 76/56/144
f 101/31/145 102/30/147 78/54/148 77/55/146
f 102/30/147 103/29/149 79/53/150 78/54/148
f 103/29/149 104/28/151 80/52/152 79/53/150
f 104/28/151 8/27/8 7/139/7 80/52/152
f 2/26/2 10/25/153 81/51/154 3/140/3
f 10/25/153 12/24/155 82/50/156 81/51/154
f 12/24/155 14/23/157 83/49/158 82/50/156
f 14/23/157 16/22/159 84/48/160 83/49/158
f 16/22/159 18/21/161 85/47/162 84/48/160
f 18/21/161 20/20/163 86/46/164 85/47/162
f 20/20/163 22/19/165 87/45/166 86/46/164
f 22/19/165 24/18/167 88/44/168 87/45/166
f 24/18/167 26/17/169 89/43/170 88/44/168
f 26/17/169 28/16/171 90/42/172 89/43/170
f 28/16/171 30/15/173 91/41/174 90/42/172
f 30/15/173 32/14/175 92/40/176 91/41/174
f 32/14/175 34/13/177 93/39/178 92/40/176
f 34/13/177 36/12/179 94/38/180 93/39/178
f 36/12/179 38/11/181 95/37/182 94/38/180
f 38/11/181 40/10/183 96/36/184 95/37/182
f 40/10/183 42/9/185 97/35/186 96/36/184
f 42/9/185 44/8/187 98/34/188 97/35/186
f 44/8/187 46/7/189 99/33/190 98/34/188
f 46/7/189 48/6/191 100/32/192 99/33/190
f 48/6/191 50/5/193 101/31/194 100/32/192
f 50/5/193 52/4/195 102/30/196 101/31/194
f 52/4/195 54/3/197 103/29/198 102/30/196
f 54/3/197 56/2/199 104/28/200 103/29/198
f 56/2/199 5/1/5 8/27/8 104/28/200
