# This file uses centimeters as units for non-parametric coordinates.

mtllib LShape_Small.mtl
g default
v 6.250000 1.626163 -0.229027
v 6.250000 1.626163 9.850494
v -6.250000 1.626163 9.850494
v -6.250000 1.626163 -0.229027
v -6.250000 4.126163 -1.017269
v -6.250000 -2.326572 -10.232731
v -6.250000 -4.126163 -8.426357
v -6.250000 4.126163 10.232731
v 6.250000 -4.126163 -8.426357
v 6.250000 -2.326572 -10.232731
v 6.250000 4.126163 -1.017269
v 6.250000 4.126163 10.232731
vt 0.375000 0.000000
vt 0.625000 0.000000
vt 0.375000 0.250000
vt 0.625000 0.250000
vt 0.375000 0.500000
vt 0.625000 0.500000
vt 0.375000 1.000000
vt 0.625000 1.000000
vt 0.875000 0.250000
vt 0.375000 0.500000
vt 0.625000 0.500000
vt 0.375000 0.750000
vt 0.625000 0.750000
vt 0.875000 0.000000
vt 0.875000 0.250000
vt 0.125000 0.000000
vt 0.125000 0.250000
vt 0.375000 0.767516
vt 0.625000 0.767516
vt 0.579788 -0.395274
vt 0.547923 -0.600062
vt 0.357483 0.000000
vt 0.375000 0.250000
vt 0.642517 0.000000
vt 0.625000 0.982483
vt 0.375000 0.982483
vt 0.375000 0.250000
vt 0.625000 0.250000
vn 0.000000 -1.000000 0.000000
vn 0.000000 -1.000000 0.000000
vn 0.000000 -1.000000 0.000000
vn 0.000000 -1.000000 0.000000
vn -1.000000 0.000000 0.000000
vn -1.000000 0.000000 0.000000
vn -1.000000 0.000000 0.000000
vn -1.000000 0.000000 0.000000
vn -1.000000 0.000000 0.000000
vn -1.000000 0.000000 0.000000
vn 1.000000 0.000000 0.000000
vn 1.000000 0.000000 0.000000
vn 1.000000 0.000000 0.000000
vn 1.000000 0.000000 0.000000
vn 1.000000 0.000000 0.000000
vn 1.000000 0.000000 0.000000
vn 0.000000 -0.818565 0.574413
vn 0.000000 -0.818565 0.574413
vn 0.000000 -0.818565 0.574413
vn 0.000000 -0.818565 0.574413
vn 0.000000 -0.708436 -0.705776
vn 0.000000 -0.708436 -0.705776
vn 0.000000 -0.708436 -0.705776
vn 0.000000 -0.708436 -0.705776
vn 0.000000 0.819152 -0.573576
vn 0.000000 0.819152 -0.573576
vn 0.000000 0.819152 -0.573576
vn 0.000000 0.819152 -0.573576
vn 0.000000 1.000000 0.000000
vn 0.000000 1.000000 0.000000
vn 0.000000 1.000000 0.000000
vn 0.000000 1.000000 0.000000
vn 0.000000 -0.151138 0.988513
vn 0.000000 -0.151138 0.988513
vn 0.000000 -0.151138 0.988513
vn 0.000000 -0.151138 0.988513
s off
g polySurface20
usemtl lambert8SG
f 1/19/1 2/8/2 3/7/3 4/18/4
f 5/23/5 6/17/6 7/16/7 4/22/8 3/21/9 8/20/10
f 1/24/11 9/14/12 10/15/13 11/9/14 12/4/15 2/2/16
f 4/26/17 7/12/18 9/13/19 1/25/20
f 6/10/21 10/11/22 9/13/23 7/12/24
f 11/28/25 10/11/26 6/10/27 5/27/28
f 11/6/29 5/5/30 8/3/31 12/4/32
f 3/1/33 2/2/34 12/4/35 8/3/36
