# This file uses centimeters as units for non-parametric coordinates.

mtllib LShape_Medium.mtl
g default
v 6.250000 4.235579 -0.942915
v 6.250000 -6.364173 -16.321821
v 6.250000 -4.682216 -18.267864
v 6.250000 6.735579 -1.732135
v -6.250000 6.735580 -1.732134
v -6.250000 -4.682216 -18.267864
v -6.250000 -6.364173 -16.321821
v -6.250000 4.235579 -0.942915
v -6.250000 4.235579 17.822178
v -6.250000 6.735579 18.267864
v 6.250000 4.235579 17.822178
v 6.250000 6.735579 18.267864
vt 0.375000 0.000000
vt 0.625000 0.000000
vt 0.375000 0.250000
vt 0.625000 0.250000
vt 0.625000 0.500000
vt 0.375000 0.750000
vt 0.625000 0.750000
vt 0.375000 1.000000
vt 0.625000 1.000000
vt 0.875000 0.000000
vt 0.875000 0.250000
vt 0.125000 0.000000
vt 0.375000 0.000000
vt 0.625000 0.000000
vt 0.375000 0.250000
vt 0.625000 0.250000
vt 0.625000 0.500000
vt 0.375000 1.000000
vt 0.625000 1.000000
vt 0.875000 0.250000
vt 0.125000 0.250000
vt 0.125000 -0.000000
vt 0.875000 -0.000000
vt 0.375000 0.750000
vt 0.625000 0.750000
vt 0.375000 0.500000
vt 0.125000 0.250000
vt 0.375000 0.500000
vn 1.000000 0.000000 0.000000
vn 1.000000 0.000000 0.000000
vn 1.000000 0.000000 0.000000
vn 1.000000 0.000000 0.000000
vn -1.000000 -0.000000 0.000000
vn -1.000000 -0.000000 0.000000
vn -1.000000 -0.000000 0.000000
vn -1.000000 -0.000000 0.000000
vn 0.000000 -0.823373 0.567501
vn 0.000000 -0.823373 0.567501
vn 0.000000 -0.823373 0.567501
vn 0.000000 -0.823373 0.567501
vn -0.000000 0.822891 -0.568200
vn -0.000000 0.822891 -0.568200
vn -0.000000 0.822891 -0.568200
vn -0.000000 0.822891 -0.568200
vn 0.000000 -0.756576 -0.653906
vn 0.000000 -0.756576 -0.653906
vn 0.000000 -0.756576 -0.653906
vn 0.000000 -0.756576 -0.653906
vn -1.000000 0.000000 0.000000
vn -1.000000 0.000000 0.000000
vn -1.000000 0.000000 0.000000
vn -1.000000 0.000000 0.000000
vn 1.000000 -0.000000 0.000000
vn 1.000000 -0.000000 0.000000
vn 1.000000 -0.000000 0.000000
vn 1.000000 -0.000000 0.000000
vn 0.000000 -1.000000 0.000000
vn 0.000000 -1.000000 0.000000
vn 0.000000 -1.000000 0.000000
vn 0.000000 -1.000000 0.000000
vn 0.000000 1.000000 0.000000
vn 0.000000 1.000000 0.000000
vn 0.000000 1.000000 0.000000
vn 0.000000 1.000000 0.000000
vn 0.000000 -0.175507 0.984478
vn 0.000000 -0.175507 0.984478
vn 0.000000 -0.175507 0.984478
vn 0.000000 -0.175507 0.984478
s off
g polySurface6
usemtl lambert8SG
f 1/22/1 2/13/2 3/15/3 4/21/4
f 5/20/5 6/16/6 7/14/7 8/23/8
f 8/25/9 7/19/10 2/18/11 1/24/12
f 4/26/13 3/15/14 6/16/15 5/17/16
f 2/13/17 7/14/18 6/16/19 3/15/20
f 8/12/21 9/1/22 10/3/23 5/27/24
f 11/2/25 1/10/26 4/11/27 12/4/28
f 8/6/29 1/7/30 11/9/31 9/8/32
f 4/5/33 5/28/34 10/3/35 12/4/36
f 9/1/37 11/2/38 12/4/39 10/3/40
