# This file uses centimeters as units for non-parametric coordinates.

mtllib Octogon.mtl
g default
v -2.500000 -1.250000 7.500000
v 2.500000 -1.250000 7.500000
v -7.500000 -1.250000 2.500000
v 7.500000 -1.250000 2.500000
v -7.500000 -1.250000 -2.500000
v 7.500000 -1.250000 -2.500000
v -2.500000 -1.250000 -7.500000
v 2.500000 -1.250000 -7.500000
v 2.500000 1.250000 -7.500000
v 7.500000 1.250000 -2.500000
v -2.500000 1.250000 -7.500000
v -7.500000 1.250000 -2.500000
v -7.500000 1.250000 2.500000
v -2.500000 1.250000 7.500000
v 2.500000 1.250000 7.500000
v 7.500000 1.250000 2.500000
vt 0.333333 0.000000
vt 0.666667 0.000000
vt 0.000000 0.333333
vt 1.000000 0.333333
vt 0.000000 0.666667
vt 1.000000 0.666667
vt 0.333333 1.000000
vt 0.666667 1.000000
vt 1.000000 0.666667
vt 0.666667 1.000000
vt 0.333333 1.000000
vt 0.000000 0.666667
vt 0.000000 0.333333
vt 0.333333 0.000000
vt 0.666667 0.000000
vt 1.000000 0.333333
vt 1.000000 0.666667
vt 0.666667 1.000000
vt 0.333333 1.000000
vt 0.000000 0.666667
vt 0.000000 0.333333
vt 0.333333 0.000000
vt 0.666667 0.000000
vt 1.000000 0.333333
vn 0.000000 1.000000 0.000000
vn 0.000000 1.000000 0.000000
vn 0.000000 1.000000 0.000000
vn 0.000000 1.000000 0.000000
vn 0.000000 1.000000 0.000000
vn 0.000000 1.000000 0.000000
vn 0.000000 1.000000 0.000000
vn 0.000000 1.000000 0.000000
vn 0.000000 -1.000000 0.000000
vn 0.000000 -1.000000 0.000000
vn 0.000000 -1.000000 0.000000
vn 0.000000 -1.000000 0.000000
vn 0.000000 -1.000000 0.000000
vn 0.000000 -1.000000 0.000000
vn 0.000000 -1.000000 0.000000
vn 0.000000 -1.000000 0.000000
vn 0.707107 0.000000 -0.707107
vn 0.707107 0.000000 -0.707107
vn 0.707107 0.000000 -0.707107
vn 0.707107 0.000000 -0.707107
vn 0.000000 0.000000 -1.000000
vn 0.000000 0.000000 -1.000000
vn 0.000000 0.000000 -1.000000
vn 0.000000 0.000000 -1.000000
vn -0.707107 0.000000 -0.707107
vn -0.707107 0.000000 -0.707107
vn -0.707107 0.000000 -0.707107
vn -0.707107 0.000000 -0.707107
vn -1.000000 0.000000 0.000000
vn -1.000000 0.000000 0.000000
vn -1.000000 0.000000 0.000000
vn -1.000000 0.000000 0.000000
vn -0.707107 0.000000 0.707107
vn -0.707107 0.000000 0.707107
vn -0.707107 0.000000 0.707107
vn -0.707107 0.000000 0.707107
vn 0.000000 0.000000 1.000000
vn 0.000000 0.000000 1.000000
vn 0.000000 0.000000 1.000000
vn 0.000000 0.000000 1.000000
vn 0.707107 0.000000 0.707107
vn 0.707107 0.000000 0.707107
vn 0.707107 0.000000 0.707107
vn 0.707107 0.000000 0.707107
vn 1.000000 0.000000 0.000000
vn 1.000000 0.000000 0.000000
vn 1.000000 0.000000 0.000000
vn 1.000000 0.000000 0.000000
s off
g pPlane2
usemtl lambert8SG
f 10/17/1 9/18/2 11/19/3 12/20/4 13/21/5 14/22/6 15/23/7 16/24/8
f 6/9/9 4/16/10 2/15/11 1/14/12 3/13/13 5/12/14 7/11/15 8/10/16
f 6/6/17 8/8/18 9/18/19 10/17/20
f 8/8/21 7/7/22 11/19/23 9/18/24
f 7/7/25 5/5/26 12/20/27 11/19/28
f 5/5/29 3/3/30 13/21/31 12/20/32
f 3/3/33 1/1/34 14/22/35 13/21/36
f 1/1/37 2/2/38 15/23/39 14/22/40
f 2/2/41 4/4/42 16/24/43 15/23/44
f 4/4/45 6/6/46 10/17/47 16/24/48
