# This file uses centimeters as units for non-parametric coordinates.

mtllib Quarter_Pipe.mtl
g default
v 3.750000 -2.045957 7.500000
v 3.750000 -3.742603 7.500000
v 3.750000 -3.742603 -7.500000
v 3.750000 -2.045957 -7.500000
v -2.004265 3.015671 -7.500000
v -2.050003 3.742603 -7.500000
v -2.050003 3.742603 7.500000
v -2.004265 3.015671 7.500000
v -1.867783 2.300201 -7.500000
v -1.867783 2.300201 7.500000
v -1.642708 1.607479 -7.500000
v -1.642708 1.607479 7.500000
v -1.332581 0.948431 -7.500000
v -1.332581 0.948431 7.500000
v -0.942299 0.333447 -7.500000
v -0.942299 0.333447 7.500000
v -0.478020 -0.227772 -7.500000
v -0.478020 -0.227772 7.500000
v 0.052940 -0.726377 -7.500000
v 0.052940 -0.726377 7.500000
v 0.642204 -1.154503 -7.500000
v 0.642204 -1.154503 7.500000
v 1.280479 -1.505398 -7.500000
v 1.280479 -1.505398 7.500000
v 1.957703 -1.773529 -7.500000
v 1.957703 -1.773529 7.500000
v 2.663185 -1.954668 -7.500000
v 2.663185 -1.954668 7.500000
v 3.385818 -2.045956 -7.500000
v 3.385818 -2.045956 7.500000
v -3.750000 3.742603 7.500000
v -3.690865 2.802603 7.500000
v -3.514374 1.877428 7.500000
v -3.223328 0.981667 7.500000
v -2.822304 0.129448 7.500000
v -2.317627 -0.665791 7.500000
v -1.717270 -1.391504 7.500000
v -1.030678 -2.036251 7.500000
v -0.268700 -2.589861 7.500000
v 0.556656 -3.043606 7.500000
v 1.432373 -3.390326 7.500000
v 2.344643 -3.624557 7.500000
v 3.279076 -3.742603 7.500000
v -3.750000 3.742603 -7.500000
v -3.690865 2.802603 -7.500000
v -3.514374 1.877428 -7.500000
v -3.223328 0.981667 -7.500000
v -2.822304 0.129448 -7.500000
v -2.317627 -0.665791 -7.500000
v -1.717270 -1.391504 -7.500000
v -1.030678 -2.036251 -7.500000
v -0.268700 -2.589861 -7.500000
v 0.556656 -3.043606 -7.500000
v 1.432373 -3.390326 -7.500000
v 2.344643 -3.624557 -7.500000
v 3.279076 -3.742603 -7.500000
vt 0.500000 1.000000
vt 0.520000 1.000000
vt 0.540000 1.000000
vt 0.560000 1.000000
vt 0.580000 1.000000
vt 0.600000 1.000000
vt 0.620000 1.000000
vt 0.640000 1.000000
vt 0.660000 1.000000
vt 0.680000 1.000000
vt 0.700000 1.000000
vt 0.720000 1.000000
vt 0.740000 1.000000
vt 0.500000 0.750000
vt 0.520000 0.750000
vt 0.540000 0.750000
vt 0.560000 0.750000
vt 0.580000 0.750000
vt 0.600000 0.750000
vt 0.620000 0.750000
vt 0.640000 0.750000
vt 0.660000 0.750000
vt 0.680000 0.750000
vt 0.700000 0.750000
vt 0.720000 0.750000
vt 0.740000 0.750000
vt 0.520000 0.500000
vt 0.540000 0.500000
vt 0.560000 0.500000
vt 0.580000 0.500000
vt 0.600000 0.500000
vt 0.620000 0.500000
vt 0.640000 0.500000
vt 0.660000 0.500000
vt 0.680000 0.500000
vt 0.700000 0.500000
vt 0.720000 0.500000
vt 0.740000 0.500000
vt 0.500000 0.250000
vt 0.520000 0.250000
vt 0.540000 0.250000
vt 0.560000 0.250000
vt 0.580000 0.250000
vt 0.600000 0.250000
vt 0.620000 0.250000
vt 0.640000 0.250000
vt 0.660000 0.250000
vt 0.680000 0.250000
vt 0.700000 0.250000
vt 0.720000 0.250000
vt 0.740000 0.250000
vt 0.500000 0.000000
vt 0.520000 0.000000
vt 0.540000 0.000000
vt 0.560000 0.000000
vt 0.580000 0.000000
vt 0.600000 0.000000
vt 0.620000 0.000000
vt 0.640000 0.000000
vt 0.660000 0.000000
vt 0.680000 0.000000
vt 0.700000 0.000000
vt 0.720000 0.000000
vt 0.740000 0.000000
vt 0.427500 0.090909
vt 0.406250 0.090909
vt 0.406250 0.022727
vt 0.427500 0.022727
vt 0.500000 0.500000
vt 0.500000 0.500000
vt 0.256123 0.071429
vt 0.269174 0.071429
vt 0.269174 0.125000
vt 0.256123 0.125000
vt 0.750000 1.000000
vt 0.750000 0.750000
vt 0.750000 0.750000
vt 0.750000 0.500000
vt 0.750000 0.500000
vt 0.750000 0.250000
vt 0.750000 0.250000
vt 0.750000 0.000000
vn 1.000000 0.000000 0.000000
vn 1.000000 0.000000 0.000000
vn 1.000000 0.000000 0.000000
vn 1.000000 0.000000 0.000000
vn 0.992114 0.125335 0.000000
vn 0.564516 0.601151 -0.565632
vn 0.564516 0.601151 0.565632
vn 0.992114 0.125335 0.000000
vn 0.968584 0.248687 0.000000
vn 0.968584 0.248687 0.000000
vn 0.929777 0.368124 0.000000
vn 0.929777 0.368124 0.000000
vn 0.876306 0.481756 0.000000
vn 0.876306 0.481756 0.000000
vn 0.809017 0.587785 0.000000
vn 0.809017 0.587785 0.000000
vn 0.728969 0.684546 0.000000
vn 0.728969 0.684546 0.000000
vn 0.637424 0.770513 0.000000
vn 0.637424 0.770513 0.000000
vn 0.535827 0.844328 0.000000
vn 0.535827 0.844328 0.000000
vn 0.425779 0.904827 0.000000
vn 0.425779 0.904827 0.000000
vn 0.309018 0.951056 0.000000
vn 0.309018 0.951056 0.000000
vn 0.187381 0.982287 0.000000
vn 0.187381 0.982287 0.000000
vn 0.062790 0.998027 0.000000
vn 0.062790 0.998027 0.000000
vn 0.000003 1.000000 0.000000
vn 0.000003 1.000000 0.000000
vn 0.000000 0.000000 1.000000
vn -0.588663 0.552794 0.589826
vn 0.000000 0.000000 1.000000
vn 0.000000 0.000000 1.000000
vn 0.000000 0.000000 1.000000
vn 0.000000 0.000000 1.000000
vn 0.000000 0.000000 1.000000
vn 0.000000 0.000000 1.000000
vn 0.000000 0.000000 1.000000
vn 0.000000 0.000000 1.000000
vn 0.000000 0.000000 1.000000
vn 0.000000 0.000000 1.000000
vn 0.000000 0.000000 1.000000
vn 0.000000 0.000000 1.000000
vn 0.000000 0.000000 1.000000
vn 0.000000 0.000000 1.000000
vn 0.000000 0.000000 1.000000
vn 0.000000 0.000000 1.000000
vn 0.000000 0.000000 1.000000
vn 0.000000 0.000000 1.000000
vn 0.000000 0.000000 1.000000
vn 0.000000 0.000000 1.000000
vn 0.000000 0.000000 1.000000
vn 0.000000 0.000000 1.000000
vn 0.000000 0.000000 1.000000
vn 0.000000 0.000000 1.000000
vn 0.000000 0.000000 1.000000
vn -0.992115 -0.125333 0.000000
vn -0.588663 0.552794 -0.589826
vn -0.992115 -0.125333 0.000000
vn -0.968583 -0.248690 0.000000
vn -0.968583 -0.248690 0.000000
vn -0.929777 -0.368123 0.000000
vn -0.929777 -0.368123 0.000000
vn -0.876306 -0.481755 0.000000
vn -0.876306 -0.481755 0.000000
vn -0.809018 -0.587785 0.000000
vn -0.809018 -0.587785 0.000000
vn -0.728969 -0.684547 0.000000
vn -0.728969 -0.684547 0.000000
vn -0.637422 -0.770515 0.000000
vn -0.637422 -0.770515 0.000000
vn -0.535828 -0.844327 0.000000
vn -0.535828 -0.844327 0.000000
vn -0.425780 -0.904827 0.000000
vn -0.425780 -0.904827 0.000000
vn -0.309017 -0.951057 0.000000
vn -0.309017 -0.951057 0.000000
vn -0.187382 -0.982287 0.000000
vn -0.187382 -0.982287 0.000000
vn -0.062790 -0.998027 0.000000
vn -0.062790 -0.998027 0.000000
vn 0.000000 -1.000000 0.000000
vn 0.000000 -1.000000 0.000000
vn 0.000000 0.000000 -1.000000
vn 0.000000 0.000000 -1.000000
vn 0.000000 0.000000 -1.000000
vn 0.000000 0.000000 -1.000000
vn 0.000000 0.000000 -1.000000
vn 0.000000 0.000000 -1.000000
vn 0.000000 0.000000 -1.000000
vn 0.000000 0.000000 -1.000000
vn 0.000000 0.000000 -1.000000
vn 0.000000 0.000000 -1.000000
vn 0.000000 0.000000 -1.000000
vn 0.000000 0.000000 -1.000000
vn 0.000000 0.000000 -1.000000
vn 0.000000 0.000000 -1.000000
vn 0.000000 0.000000 -1.000000
vn 0.000000 0.000000 -1.000000
vn 0.000000 0.000000 -1.000000
vn 0.000000 0.000000 -1.000000
vn 0.000000 0.000000 -1.000000
vn 0.000000 0.000000 -1.000000
vn 0.000000 0.000000 -1.000000
vn 0.000000 0.000000 -1.000000
vn 0.000000 0.000000 -1.000000
vn 0.000000 0.000000 -1.000000
vn 0.000001 0.000000 -1.000000
vn 0.000001 0.000000 -1.000000
s off
g polySurface50
usemtl lambert8SG
f 1/74/1 2/73/2 3/72/3 4/71/4
s 1
f 5/2/5 6/1/6 7/14/7 8/15/8
f 9/3/9 5/2/5 8/15/8 10/16/10
f 11/4/11 9/3/9 10/16/10 12/17/12
f 13/5/13 11/4/11 12/17/12 14/18/14
f 15/6/15 13/5/13 14/18/14 16/19/16
f 17/7/17 15/6/15 16/19/16 18/20/18
f 19/8/19 17/7/17 18/20/18 20/21/20
f 21/9/21 19/8/19 20/21/20 22/22/22
f 23/10/23 21/9/21 22/22/22 24/23/24
f 25/11/25 23/10/23 24/23/24 26/24/26
f 27/12/27 25/11/25 26/24/26 28/25/28
f 29/13/29 27/12/27 28/25/28 30/26/30
f 1/76/31 4/75/32 29/13/29 30/26/30
f 8/15/33 7/14/7 31/70/34 32/27/35
f 10/16/36 8/15/33 32/27/35 33/28/37
f 12/17/38 10/16/36 33/28/37 34/29/39
f 14/18/40 12/17/38 34/29/39 35/30/41
f 16/19/42 14/18/40 35/30/41 36/31/43
f 18/20/44 16/19/42 36/31/43 37/32/45
f 20/21/46 18/20/44 37/32/45 38/33/47
f 22/22/48 20/21/46 38/33/47 39/34/49
f 24/23/50 22/22/48 39/34/49 40/35/51
f 26/24/52 24/23/50 40/35/51 41/36/53
f 28/25/54 26/24/52 41/36/53 42/37/55
f 30/26/56 28/25/54 42/37/55 43/38/57
f 2/78/58 1/77/59 30/26/56 43/38/57
f 32/27/60 31/69/34 44/39/61 45/40/62
f 33/28/63 32/27/60 45/40/62 46/41/64
f 34/29/65 33/28/63 46/41/64 47/42/66
f 35/30/67 34/29/65 47/42/66 48/43/68
f 36/31/69 35/30/67 48/43/68 49/44/70
f 37/32/71 36/31/69 49/44/70 50/45/72
f 38/33/73 37/32/71 50/45/72 51/46/74
f 39/34/75 38/33/73 51/46/74 52/47/76
f 40/35/77 39/34/75 52/47/76 53/48/78
f 41/36/79 40/35/77 53/48/78 54/49/80
f 42/37/81 41/36/79 54/49/80 55/50/82
f 43/38/83 42/37/81 55/50/82 56/51/84
f 3/80/85 2/79/86 43/38/83 56/51/84
f 45/40/87 44/39/61 6/52/6 5/53/88
f 46/41/89 45/40/87 5/53/88 9/54/90
f 47/42/91 46/41/89 9/54/90 11/55/92
f 48/43/93 47/42/91 11/55/92 13/56/94
f 49/44/95 48/43/93 13/56/94 15/57/96
f 50/45/97 49/44/95 15/57/96 17/58/98
f 51/46/99 50/45/97 17/58/98 19/59/100
f 52/47/101 51/46/99 19/59/100 21/60/102
f 53/48/103 52/47/101 21/60/102 23/61/104
f 54/49/105 53/48/103 23/61/104 25/62/106
f 55/50/107 54/49/105 25/62/106 27/63/108
f 56/51/109 55/50/107 27/63/108 29/64/110
f 4/82/111 3/81/112 56/51/109 29/64/110
f 6/68/6 44/67/61 31/66/34 7/65/7
