# This file uses centimeters as units for non-parametric coordinates.

mtllib Quarter_Cylinder.mtl
g default
v 3.750002 -1.250000 -3.742599
v 3.750002 1.250000 -3.742599
v 3.750002 1.250000 3.742599
v 3.750002 -1.250000 3.742599
v -3.750002 -1.250000 -3.742599
v -3.690863 -1.250000 -2.802597
v -3.690863 1.250000 -2.802597
v -3.750002 1.250000 -3.742599
v -3.514376 -1.250000 -1.877426
v -3.514376 1.250000 -1.877426
v -3.223326 -1.250000 -0.981667
v -3.223326 1.250000 -0.981667
v -2.822302 -1.250000 -0.129448
v -2.822302 1.250000 -0.129448
v -2.317629 -1.250000 0.665794
v -2.317629 1.250000 0.665794
v -1.717264 -1.250000 1.391510
v -1.717264 1.250000 1.391510
v -1.030680 -1.250000 2.036255
v -1.030680 1.250000 2.036255
v -0.268700 -1.250000 2.589859
v -0.268700 1.250000 2.589859
v 0.556658 -1.250000 3.043610
v 0.556658 1.250000 3.043610
v 1.432375 -1.250000 3.390327
v 1.432375 1.250000 3.390327
v 2.344643 -1.250000 3.624557
v 2.344643 1.250000 3.624557
v 3.279074 -1.250000 3.742599
v 3.279074 1.250000 3.742599
vt 0.343750 0.156250
vt 0.344982 0.175833
vt 0.348659 0.195108
vt 0.354722 0.213770
vt 0.363077 0.231524
vt 0.373591 0.248092
vt 0.386099 0.263211
vt 0.400402 0.276643
vt 0.416277 0.288176
vt 0.433472 0.297629
vt 0.451716 0.304853
vt 0.470722 0.309732
vt 0.490189 0.312192
vt 0.495000 0.312500
vt 0.500000 0.312500
vt 0.505000 0.312500
vt 0.510000 0.312500
vt 0.515000 0.312500
vt 0.520000 0.312500
vt 0.525000 0.312500
vt 0.530000 0.312500
vt 0.535000 0.312500
vt 0.540000 0.312500
vt 0.545000 0.312500
vt 0.550000 0.312500
vt 0.555000 0.312500
vt 0.495000 0.688440
vt 0.500000 0.688440
vt 0.505000 0.688440
vt 0.510000 0.688440
vt 0.515000 0.688440
vt 0.520000 0.688440
vt 0.525000 0.688440
vt 0.530000 0.688440
vt 0.535000 0.688440
vt 0.540000 0.688440
vt 0.545000 0.688440
vt 0.550000 0.688440
vt 0.555000 0.688440
vt 0.490189 0.687808
vt 0.470722 0.690268
vt 0.451716 0.695147
vt 0.433472 0.702371
vt 0.416277 0.711824
vt 0.400402 0.723357
vt 0.386099 0.736790
vt 0.373591 0.751909
vt 0.363077 0.768476
vt 0.354722 0.786231
vt 0.348659 0.804892
vt 0.344982 0.824167
vt 0.343750 0.843750
vt 0.500000 0.837500
vt 0.400000 0.062500
vt 0.475000 0.062500
vt 0.475000 0.125000
vt 0.400000 0.125000
vt 0.500000 0.150000
vt 0.500000 0.150000
vt 0.500000 0.150000
vt 0.500000 0.150000
vt 0.500000 0.150000
vt 0.500000 0.150000
vt 0.500000 0.150000
vt 0.500000 0.150000
vt 0.500000 0.150000
vt 0.500000 0.150000
vt 0.500000 0.150000
vt 0.500000 0.150000
vt 0.500000 0.150000
vt 0.450148 0.687500
vt 0.450148 0.625000
vt 0.525000 0.625000
vt 0.525000 0.687500
vt 0.557500 0.688440
vt 0.557500 0.312500
vt 0.500000 0.312192
vt 0.500000 0.687808
vn 1.000000 0.000000 0.000000
vn 1.000000 0.000000 0.000000
vn 1.000000 0.000000 0.000000
vn 1.000000 0.000000 0.000000
vn -0.588663 -0.589827 -0.552792
vn -0.992115 0.000000 0.125333
vn -0.992115 0.000000 0.125333
vn -0.588663 0.589827 -0.552792
vn -0.968583 0.000000 0.248690
vn -0.968583 0.000000 0.248690
vn -0.929777 0.000000 0.368125
vn -0.929777 0.000000 0.368125
vn -0.876307 0.000000 0.481753
vn -0.876307 0.000000 0.481753
vn -0.809018 0.000000 0.587784
vn -0.809018 0.000000 0.587784
vn -0.728968 0.000000 0.684547
vn -0.728968 0.000000 0.684547
vn -0.637421 0.000000 0.770515
vn -0.637421 0.000000 0.770515
vn -0.535827 0.000000 0.844328
vn -0.535827 0.000000 0.844328
vn -0.425781 0.000000 0.904826
vn -0.425781 0.000000 0.904826
vn -0.309015 0.000000 0.951057
vn -0.309015 0.000000 0.951057
vn -0.187379 0.000000 0.982288
vn -0.187379 0.000000 0.982288
vn -0.062788 0.000000 0.998027
vn -0.062788 0.000000 0.998027
vn 0.000000 0.000000 1.000000
vn 0.000000 0.000000 1.000000
vn 0.000000 -1.000000 0.000000
vn 0.000000 -0.997055 -0.076697
vn 0.000000 -1.000000 0.000000
vn 0.000000 -1.000000 0.000000
vn 0.000000 -1.000000 0.000000
vn 0.000000 -1.000000 0.000000
vn 0.000000 -1.000000 0.000000
vn 0.000000 -1.000000 0.000000
vn 0.000000 -1.000000 0.000000
vn 0.000000 -1.000000 0.000000
vn 0.000000 -1.000000 0.000000
vn 0.000000 -1.000000 0.000000
vn 0.000000 -1.000000 0.000000
vn 0.000000 -1.000000 0.000000
vn 0.000000 1.000000 0.000000
vn 0.000000 0.997055 -0.076697
vn 0.000000 1.000000 0.000000
vn 0.000000 1.000000 0.000000
vn 0.000000 1.000000 0.000000
vn 0.000000 1.000000 0.000000
vn 0.000000 1.000000 0.000000
vn 0.000000 1.000000 0.000000
vn 0.000000 1.000000 0.000000
vn 0.000000 1.000000 0.000000
vn 0.000000 1.000000 0.000000
vn 0.000000 1.000000 0.000000
vn 0.000000 1.000000 0.000000
vn 0.000000 1.000000 0.000000
s off
g polySurface22
usemtl lambert8SG
f 1/74/1 2/73/2 3/72/3 4/71/4
s 1
f 5/14/5 6/15/6 7/28/7 8/27/8
f 6/15/6 9/16/9 10/29/10 7/28/7
f 9/16/9 11/17/11 12/30/12 10/29/10
f 11/17/11 13/18/13 14/31/14 12/30/12
f 13/18/13 15/19/15 16/32/16 14/31/14
f 15/19/15 17/20/17 18/33/18 16/32/16
f 17/20/17 19/21/19 20/34/20 18/33/18
f 19/21/19 21/22/21 22/35/22 20/34/20
f 21/22/21 23/23/23 24/36/24 22/35/22
f 23/23/23 25/24/25 26/37/26 24/36/24
f 25/24/25 27/25/27 28/38/28 26/37/26
f 27/25/27 29/26/29 30/39/30 28/38/28
f 4/76/31 3/75/32 30/39/30 29/26/29
f 6/2/33 5/1/5 1/70/34
f 9/3/35 6/2/33 1/69/34
f 11/4/36 9/3/35 1/68/34
f 13/5/37 11/4/36 1/67/34
f 15/6/38 13/5/37 1/66/34
f 17/7/39 15/6/38 1/65/34
f 19/8/40 17/7/39 1/64/34
f 21/9/41 19/8/40 1/63/34
f 23/10/42 21/9/41 1/62/34
f 25/11/43 23/10/42 1/61/34
f 27/12/44 25/11/43 1/60/34
f 29/13/45 27/12/44 1/59/34
f 1/58/34 4/77/46 29/13/45
f 8/52/8 7/51/47 2/53/48
f 7/51/47 10/50/49 2/53/48
f 10/50/49 12/49/50 2/53/48
f 12/49/50 14/48/51 2/53/48
f 14/48/51 16/47/52 2/53/48
f 16/47/52 18/46/53 2/53/48
f 18/46/53 20/45/54 2/53/48
f 20/45/54 22/44/55 2/53/48
f 22/44/55 24/43/56 2/53/48
f 24/43/56 26/42/57 2/53/48
f 26/42/57 28/41/58 2/53/48
f 28/41/58 30/40/59 2/53/48
f 3/78/60 2/53/48 30/40/59
f 2/56/48 1/55/34 5/54/5 8/57/8
