# This file uses centimeters as units for non-parametric coordinates.

mtllib Quarter_1of4_Cone.mtl
g default
v 3.750000 1.250000 -3.742601
v 3.750000 1.250000 1.871302
v 3.750000 -1.250000 3.742601
v 3.750000 -1.250000 -3.742601
v -1.875000 1.250000 -3.742601
v -1.830643 1.250000 -3.037601
v -1.698273 1.250000 -2.343719
v -1.479996 1.250000 -1.671900
v -1.179230 1.250000 -1.032736
v -0.800720 1.250000 -0.436308
v -0.350449 1.250000 0.107977
v 0.164490 1.250000 0.591537
v 0.735977 1.250000 1.006746
v 1.354996 1.250000 1.347052
v 2.011780 1.250000 1.607094
v 2.695984 1.250000 1.782766
v 3.396805 1.250000 1.871302
v 3.279068 -1.250000 3.742601
v 2.344650 -1.250000 3.624556
v 1.432373 -1.250000 3.390326
v 0.556656 -1.250000 3.043604
v -0.268692 -1.250000 2.589861
v -1.030670 -1.250000 2.036251
v -1.717270 -1.250000 1.391504
v -2.317627 -1.250000 0.665791
v -2.822296 -1.250000 -0.129446
v -3.223328 -1.250000 -0.981665
v -3.514374 -1.250000 -1.877426
v -3.690857 -1.250000 -2.802601
v -3.750000 -1.250000 -3.742601
vt 0.251971 0.281333
vt 0.257854 0.312173
vt 0.267556 0.342031
vt 0.280923 0.370439
vt 0.297746 0.396946
vt 0.317758 0.421137
vt 0.340644 0.442628
vt 0.366043 0.461082
vt 0.393555 0.476207
vt 0.422746 0.487764
vt 0.453155 0.495572
vt 0.484302 0.499507
vt 0.500000 0.500000
vt 0.510000 0.500000
vt 0.520000 0.500000
vt 0.530000 0.500000
vt 0.540000 0.500000
vt 0.550000 0.500000
vt 0.560000 0.500000
vt 0.570000 0.500000
vt 0.580000 0.500000
vt 0.590000 0.500000
vt 0.600000 0.500000
vt 0.610000 0.500000
vt 0.495585 0.945174
vt 0.486825 0.944067
vt 0.478272 0.941871
vt 0.470062 0.938621
vt 0.462325 0.934367
vt 0.455181 0.929177
vt 0.448744 0.923132
vt 0.443116 0.916329
vt 0.438385 0.908873
vt 0.434625 0.900884
vt 0.431897 0.892486
vt 0.430242 0.883812
vt 0.429687 0.875000
vt 0.582500 0.625000
vt 0.575000 0.625000
vt 0.582500 0.625000
vt 0.567500 0.625000
vt 0.575000 0.625000
vt 0.560000 0.625000
vt 0.567500 0.625000
vt 0.552500 0.625000
vt 0.560000 0.625000
vt 0.545000 0.625000
vt 0.552500 0.625000
vt 0.537500 0.625000
vt 0.545000 0.625000
vt 0.530000 0.625000
vt 0.537500 0.625000
vt 0.522500 0.625000
vt 0.530000 0.625000
vt 0.515000 0.625000
vt 0.522500 0.625000
vt 0.507500 0.625000
vt 0.515000 0.625000
vt 0.500000 0.625000
vt 0.507500 0.625000
vt 0.492500 0.625000
vt 0.500000 0.625000
vt 0.429688 0.125000
vt 0.406250 0.062500
vt 0.250000 0.250000
vt 0.490000 0.500000
vt 0.208333 0.062500
vt 0.270710 0.062500
vt 0.255116 0.125000
vt 0.208333 0.125000
vt 0.500000 0.875000
vt 0.500000 0.945174
vt 0.586250 0.625000
vt 0.615000 0.500000
vt 0.500000 0.499507
vt 0.500000 0.250000
vt 0.500000 0.062500
vt 0.500000 0.125000
vn 1.000000 0.000000 0.000000
vn 1.000000 0.000000 0.000000
vn 1.000000 0.000000 0.000000
vn 1.000000 0.000000 0.000000
vn 0.000000 1.000000 0.000000
vn 0.000000 1.000000 0.000000
vn 0.000000 1.000000 0.000000
vn 0.000000 1.000000 0.000000
vn 0.000000 1.000000 0.000000
vn 0.000000 1.000000 0.000000
vn 0.000000 1.000000 0.000000
vn 0.000000 1.000000 0.000000
vn 0.000000 1.000000 0.000000
vn 0.000000 1.000000 0.000000
vn 0.000000 1.000000 0.000000
vn 0.000000 1.000000 0.000000
vn 0.000000 1.000000 0.000000
vn 0.000000 1.000000 0.000000
vn 0.000000 1.000000 0.000000
vn 0.000000 0.599241 0.800569
vn 0.000000 0.599241 0.800569
vn -0.050233 0.600000 0.798421
vn -0.050233 0.600000 0.798421
vn -0.149905 0.600000 0.785830
vn -0.149905 0.600000 0.785830
vn -0.247213 0.600000 0.760845
vn -0.247213 0.600000 0.760845
vn -0.340624 0.600000 0.723861
vn -0.340624 0.600000 0.723861
vn -0.428662 0.600000 0.675463
vn -0.428662 0.600000 0.675463
vn -0.509938 0.599999 0.616412
vn -0.509938 0.599999 0.616412
vn -0.583174 0.600000 0.547638
vn -0.583174 0.600000 0.547638
vn -0.647214 0.600000 0.470228
vn -0.647214 0.600000 0.470228
vn -0.701045 0.599999 0.385405
vn -0.701045 0.599999 0.385405
vn -0.743822 0.600000 0.294498
vn -0.743822 0.600000 0.294498
vn -0.774867 0.600001 0.198949
vn -0.774867 0.600001 0.198949
vn -0.793691 0.600000 0.100268
vn -0.793691 0.600000 0.100268
vn -0.579730 0.434797 -0.689104
vn -0.579730 0.434797 -0.689104
vn 0.000000 -1.000000 0.000000
vn 0.000000 -1.000000 0.000000
vn 0.000000 -1.000000 0.000000
vn 0.000000 -1.000000 0.000000
vn 0.000000 -1.000000 0.000000
vn 0.000000 -1.000000 0.000000
vn 0.000000 -1.000000 0.000000
vn 0.000000 -1.000000 0.000000
vn 0.000000 -1.000000 0.000000
vn 0.000000 -1.000000 0.000000
vn 0.000000 -1.000000 0.000000
vn 0.000000 -1.000000 0.000000
vn 0.000000 -1.000000 0.000000
vn 0.000000 -1.000000 0.000000
vn 0.000000 -1.000000 0.000000
vn 0.000000 0.000000 -1.000000
vn 0.000000 0.000000 -1.000000
s off
g polySurface59
usemtl initialShadingGroup
f 1/70/1 2/69/2 3/68/3 4/67/4
usemtl lambert8SG
f 2/72/5 1/71/6 5/37/7 6/36/8 7/35/9 8/34/10 9/33/11 10/32/12 11/31/13 12/30/14 13/29/15 14/28/16 15/27/17 16/26/18 17/25/19
s 1
f 3/74/20 2/73/21 17/38/22 18/24/23
f 17/40/22 16/39/24 19/23/25 18/24/23
f 16/42/24 15/41/26 20/22/27 19/23/25
f 15/44/26 14/43/28 21/21/29 20/22/27
f 14/46/28 13/45/30 22/20/31 21/21/29
f 13/48/30 12/47/32 23/19/33 22/20/31
f 12/50/32 11/49/34 24/18/35 23/19/33
f 11/52/34 10/51/36 25/17/37 24/18/35
f 10/54/36 9/53/38 26/16/39 25/17/37
f 9/56/38 8/55/40 27/15/41 26/16/39
f 8/58/40 7/57/42 28/14/43 27/15/41
f 7/60/42 6/59/44 29/13/45 28/14/43
f 6/62/44 5/61/46 30/66/47 29/13/45
s off
f 4/76/48 3/75/49 18/12/50 19/11/51 20/10/52 21/9/53 22/8/54 23/7/55 24/6/56 25/5/57 26/4/58 27/3/59 28/2/60 29/1/61 30/65/62
s 1
usemtl initialShadingGroup
f 1/78/63 4/77/64 30/64/47 5/63/46
