# This file uses centimeters as units for non-parametric coordinates.

mtllib Quarter_Frustum.mtl
g default
v 3.535538 1.250000 -3.535534
v 3.535538 1.250000 1.767767
v 3.535538 -1.250000 3.535534
v 3.535538 -1.250000 -3.535534
v -1.767761 1.250000 -3.535534
v -1.767761 1.250000 1.767767
v -3.535530 -1.250000 3.535534
v -3.535530 -1.250000 -3.535534
vt 0.500000 0.500000
vt 0.500000 0.500000
vt 0.500000 0.950000
vt 0.500000 0.625000
vt 0.500000 0.625000
vt 0.433709 0.125000
vt 0.411612 0.062500
vt 0.375000 0.375000
vt 0.437500 0.500000
vt 0.453125 0.625000
vt 0.462500 0.912500
vt 0.229167 0.062500
vt 0.288092 0.062500
vt 0.273361 0.125000
vt 0.229167 0.125000
vt 0.500000 0.875000
vt 0.537500 0.912500
vt 0.546875 0.625000
vt 0.562500 0.500000
vt 0.625000 0.375000
vt 0.500000 0.250000
vt 0.500000 0.062500
vt 0.500000 0.125000
vn 1.000000 0.000000 0.000000
vn 1.000000 0.000000 0.000000
vn 1.000000 0.000000 0.000000
vn 1.000000 0.000000 0.000000
vn 0.000000 1.000000 0.000000
vn 0.000000 1.000000 0.000000
vn 0.000000 1.000000 0.000000
vn 0.000000 1.000000 0.000000
vn 0.000000 0.577350 0.816497
vn 0.000000 0.577350 0.816497
vn 0.000000 0.577350 0.816497
vn 0.000000 0.577350 0.816497
vn -0.816496 0.577351 0.000000
vn -0.816496 0.577351 0.000000
vn -0.816496 0.577351 0.000000
vn -0.816496 0.577351 0.000000
vn 0.000000 -1.000000 0.000000
vn 0.000000 -1.000000 0.000000
vn 0.000000 -1.000000 0.000000
vn 0.000000 -1.000000 0.000000
vn 0.000000 0.000000 -1.000000
vn 0.000000 0.000000 -1.000000
vn 0.000000 0.000000 -1.000000
vn 0.000000 0.000000 -1.000000
s off
g polySurface57
usemtl initialShadingGroup
f 1/15/1 2/14/2 3/13/3 4/12/4
usemtl lambert8SG
f 2/17/5 1/16/6 5/11/7 6/3/8
f 3/19/9 2/18/10 6/4/11 7/2/12
f 5/10/13 8/9/14 7/2/15 6/5/16
f 4/21/17 3/20/18 7/1/19 8/8/20
usemtl initialShadingGroup
f 1/23/21 4/22/22 8/7/23 5/6/24
