# This file uses centimeters as units for non-parametric coordinates.

mtllib Right_Angle.mtl
g default
v 7.196699 1.250000 7.196697
v -7.196699 1.250000 -7.196701
v -7.196699 -1.250000 -7.196701
v 7.196699 -1.250000 7.196697
v 7.196699 -1.250000 -7.196701
v 7.196699 1.250000 -7.196701
vt 0.625000 0.500000
vt 0.625000 0.750000
vt 0.875000 0.000000
vt 0.875000 0.250000
vt 0.658579 0.000000
vt 0.794281 0.000000
vt 0.794281 0.250000
vt 0.658579 0.250000
vt 0.695083 0.000000
vt 0.695083 0.250000
vt 0.385110 0.750000
vt 0.625000 0.929917
vt 0.385110 0.500000
vt 0.385110 0.750000
vt 0.625000 0.320083
vt 0.385110 0.500000
vn -0.707107 0.000000 0.707107
vn -0.707107 0.000000 0.707107
vn -0.707107 0.000000 0.707107
vn -0.707107 0.000000 0.707107
vn 1.000000 0.000000 0.000000
vn 1.000000 0.000000 0.000000
vn 1.000000 0.000000 0.000000
vn 1.000000 0.000000 0.000000
vn 0.000000 -1.000000 0.000000
vn 0.000000 -1.000000 0.000000
vn 0.000000 -1.000000 0.000000
vn 0.000000 0.000000 -1.000000
vn 0.000000 0.000000 -1.000000
vn 0.000000 0.000000 -1.000000
vn 0.000000 0.000000 -1.000000
vn 0.000000 1.000000 0.000000
vn 0.000000 1.000000 0.000000
vn 0.000000 1.000000 0.000000
s off
g polySurface45
usemtl lambert8SG
f 1/8/1 2/7/2 3/6/3 4/5/4
f 1/10/5 4/9/6 5/3/7 6/4/8
f 4/12/9 3/11/10 5/2/11
f 3/14/12 2/13/13 6/1/14 5/2/15
f 2/16/16 1/15/17 6/1/18
